<svg width="115" height="82" viewBox="0 0 115 82" fill="none" xmlns="http://www.w3.org/2000/svg">
<g clip-path="url(#clip0_237_694)" filter="url(#filter0_d_237_694)">
<path d="M61.9175 39.1455V39.3062C61.9173 40.7821 61.4592 42.1974 60.6441 43.2408C59.829 44.2842 58.7235 44.8703 57.5709 44.8701H8.51067C7.35829 44.8699 6.25315 44.2837 5.4383 43.2403C4.62345 42.1969 4.16562 40.7818 4.16551 39.3062V39.1455H61.9175Z" fill="#F2F2F2"/>
<path d="M14.4265 12.6592C10.8811 13.7804 7.69842 10.2877 7.14272 7.04759L7.38956 6.99109C10.3778 6.14529 13.7136 8.88044 14.4265 12.6592Z" fill="#545AD8"/>
<path d="M100.125 72.6651C99.0996 72.0982 98.8667 70.0327 99.7249 69.1175C100.583 68.2023 102.127 68.8694 102.377 70.2632L101.421 61.5018C101.201 59.4876 101.025 57.2359 101.976 55.6066C102.866 54.0808 104.605 53.592 106.001 54.2488C107.397 54.9056 108.429 56.544 108.867 58.3642C109.305 60.1844 109.201 62.1624 108.819 64.003C108.437 65.8436 107.787 67.5724 107.131 69.2813C106.458 71.0323 105.641 72.9298 104.203 73.5744C102.828 74.1901 100.125 72.6651 100.125 72.6651Z" fill="#F2F2F2"/>
<path d="M104.619 54.0825C105.247 56.5945 105.546 59.2224 105.504 61.8596C105.465 64.4851 105.096 67.0854 104.413 69.5615C104.024 70.9662 103.532 72.3201 102.942 73.6049C102.916 73.6654 102.91 73.7362 102.925 73.8024C102.939 73.8686 102.973 73.9249 103.02 73.9596C103.066 73.9943 103.121 74.0046 103.173 73.9883C103.225 73.972 103.27 73.9304 103.299 73.8723C104.358 71.5553 105.11 69.0301 105.526 66.3988C105.948 63.7551 106.032 61.0414 105.776 58.3631C105.632 56.8621 105.378 55.3818 105.017 53.9417C104.936 53.6185 104.537 53.7567 104.619 54.0825Z" fill="white"/>
<path d="M99.5171 69.4399L102.791 73.8458C102.975 74.0932 103.267 73.7182 103.084 73.4712L99.8096 69.0653C99.6257 68.8179 99.3335 69.1929 99.5171 69.4399Z" fill="white"/>
<path d="M96.7356 52.8046C96.619 52.8048 96.5062 52.7512 96.4181 52.6534C94.3963 50.9678 92.5967 48.8812 91.0867 46.4718C90.9943 46.3595 90.9399 46.2055 90.9351 46.0425C90.9303 45.8796 90.9755 45.7207 91.061 45.5998L92.0534 44.1964L92.2579 44.4335L91.2654 45.8369C91.2277 45.8902 91.2081 45.9605 91.2108 46.0324C91.2136 46.1042 91.2386 46.1717 91.2802 46.22L91.2947 46.2395C92.7897 48.6274 94.5725 50.6947 96.5759 52.3635L96.594 52.3812C96.6356 52.4295 96.6905 52.4546 96.7466 52.4511C96.8027 52.4475 96.8554 52.4156 96.8931 52.3623L98.8296 49.624C98.8656 49.573 98.8852 49.5065 98.8843 49.4378C98.8835 49.3691 98.8624 49.3034 98.8252 49.2539C98.3764 48.9408 97.9386 48.5995 97.5235 48.2392L97.6782 47.9469C98.091 48.3052 98.5266 48.6443 98.9731 48.9549L98.9999 48.9792C99.0473 49.0342 99.0859 49.1007 99.1133 49.1748C99.1407 49.2489 99.1564 49.3292 99.1596 49.4111C99.1628 49.493 99.1533 49.5749 99.1317 49.6521C99.1102 49.7293 99.077 49.8003 99.034 49.8611L97.0976 52.5994C97.0547 52.6603 97.0028 52.7098 96.9449 52.7448C96.887 52.7799 96.8242 52.8 96.7603 52.8038C96.752 52.8043 96.7438 52.8046 96.7356 52.8046Z" fill="#3F3D56"/>
<path d="M94.6009 48.1948C95.209 48.8993 95.8337 49.286 95.9964 49.0565C96.0176 49.0176 96.031 48.9725 96.0353 48.9254C96.0396 48.8783 96.0348 48.8305 96.0212 48.7863C95.9553 48.5264 95.8498 48.2858 95.7109 48.0783C95.1704 47.5856 94.645 47.0541 94.1348 46.4838C93.9748 46.4167 93.8521 46.4185 93.7928 46.5032C93.7844 46.5153 93.7774 46.529 93.7721 46.5438C93.6701 46.8105 94.0244 47.5256 94.6009 48.1948Z" fill="#545AD8"/>
<path d="M90.9355 42.5179C90.9407 42.6787 90.9952 42.8303 91.0872 42.9399C91.9042 44.2326 92.8022 45.4379 93.7721 46.5438C94.482 47.3546 95.2333 48.1038 96.0212 48.7863C96.1522 48.9011 96.2846 49.0123 96.4184 49.1218C96.5061 49.2202 96.6189 49.2742 96.7355 49.2737C96.7438 49.2737 96.7521 49.2719 96.7604 49.2719C96.8245 49.2681 96.8873 49.248 96.9453 49.2129C97.0033 49.1777 97.0553 49.1282 97.0982 49.0671L99.0343 46.3302C99.1211 46.2072 99.1663 46.0451 99.1598 45.8796C99.1533 45.714 99.0958 45.5585 98.9998 45.4473L98.9736 45.4226C96.8599 43.9606 95.0532 41.8665 93.7073 39.3184L93.6866 39.2866C93.5906 39.1754 93.464 39.1176 93.3347 39.1259C93.2054 39.1342 93.084 39.2078 92.9971 39.3307L91.061 42.0676C91.018 42.1284 90.9847 42.1994 90.9632 42.2767C90.9416 42.354 90.9322 42.436 90.9355 42.5179ZM91.2113 42.5002C91.2099 42.4649 91.2139 42.4296 91.2231 42.3963C91.2323 42.3629 91.2466 42.3323 91.2651 42.306L93.2012 39.5673C93.22 39.5408 93.2427 39.5193 93.268 39.5041C93.2933 39.4889 93.3208 39.4804 93.3487 39.479C93.3994 39.4751 93.4495 39.4952 93.4894 39.5355C94.8552 42.1153 96.6849 44.2372 98.8247 45.7227C98.8619 45.7719 98.8832 45.8374 98.8842 45.9059C98.8853 45.9744 98.8659 46.0408 98.8302 46.0918L96.8928 48.8305C96.8744 48.8571 96.8519 48.8787 96.8268 48.8939C96.8016 48.9091 96.7743 48.9175 96.7466 48.9188C96.6905 48.9223 96.6356 48.8975 96.5935 48.8499L96.5755 48.8322C96.2832 48.5921 95.995 48.3408 95.7109 48.0783C95.1704 47.5856 94.645 47.0541 94.1348 46.4838C93.1044 45.333 92.1539 44.0698 91.2941 42.7086L91.2803 42.6892C91.2389 42.6401 91.2141 42.5723 91.2113 42.5002V42.5002Z" fill="#3F3D56"/>
<path d="M95.9963 45.5255C96.1583 45.2964 95.7965 44.5388 95.1881 43.8333C94.5797 43.1279 93.9551 42.7417 93.793 42.9709C93.631 43.2 93.9929 43.9576 94.6013 44.6631C95.2097 45.3685 95.8343 45.7547 95.9963 45.5255Z" fill="#545AD8"/>
<path d="M83.8301 71.7867L82.1396 71.7866L81.3353 63.4366L83.8304 63.4368L83.8301 71.7867Z" fill="#FFB8B8"/>
<path d="M84.2613 73.8852L78.8101 73.885V73.7967C78.8101 73.4399 78.865 73.0866 78.9716 72.757C79.0782 72.4273 79.2345 72.1278 79.4316 71.8755C79.6286 71.6233 79.8625 71.4231 80.1199 71.2866C80.3773 71.1501 80.6533 71.0798 80.9319 71.0798H80.932L84.2614 71.08L84.2613 73.8852Z" fill="#2F2E41"/>
<path d="M88.7945 71.7867L87.104 71.7866L86.2996 63.4366L88.7947 63.4368L88.7945 71.7867Z" fill="#FFB8B8"/>
<path d="M89.2257 73.8852L83.7744 73.885V73.7967C83.7744 73.4399 83.8293 73.0866 83.9359 72.757C84.0426 72.4273 84.1989 72.1278 84.3959 71.8755C84.5929 71.6233 84.8268 71.4231 85.0842 71.2866C85.3417 71.1501 85.6176 71.0798 85.8962 71.0798H85.8964L89.2258 71.08L89.2257 73.8852Z" fill="#2F2E41"/>
<path d="M89.9291 38.0418L89.5254 68.7119C89.5241 68.809 89.5072 68.9048 89.4758 68.9932C89.4443 69.0815 89.3989 69.1606 89.3424 69.2255C89.286 69.2904 89.2197 69.3397 89.1477 69.3703C89.0757 69.4009 88.9995 69.4122 88.924 69.4034L86.9456 69.1731C86.8159 69.158 86.6945 69.0846 86.603 68.9658C86.5114 68.8471 86.4557 68.6906 86.4456 68.5243L85.2874 49.3932C85.2847 49.3483 85.2687 49.3064 85.2426 49.2761C85.2166 49.2458 85.1824 49.2294 85.1472 49.2303C85.112 49.2312 85.0785 49.2493 85.0533 49.2808C85.0282 49.3124 85.0135 49.3551 85.0122 49.4002L84.4333 68.9693C84.4279 69.1518 84.3674 69.3246 84.2647 69.4513C84.1619 69.578 84.0248 69.6488 83.8821 69.6488H81.7604C81.6199 69.6488 81.4848 69.5802 81.3825 69.457C81.2801 69.3337 81.2184 69.1651 81.2098 68.9856L79.7246 37.8652L88.5501 35.04L89.9291 38.0418Z" fill="#2F2E41"/>
<path d="M83.5277 9.24296C85.3982 9.24296 86.9146 7.30128 86.9146 4.90609C86.9146 2.5109 85.3982 0.569214 83.5277 0.569214C81.6571 0.569214 80.1407 2.5109 80.1407 4.90609C80.1407 7.30128 81.6571 9.24296 83.5277 9.24296Z" fill="#FFB8B8"/>
<path d="M79.4224 38.9542C79.3637 38.8816 79.3169 38.7949 79.2846 38.6989C79.2523 38.603 79.2352 38.4998 79.2342 38.3953L79.0058 17.4813C78.992 16.4174 79.242 15.3754 79.7197 14.5048C80.1975 13.6342 80.8784 12.9799 81.6648 12.6358C81.9821 10.7925 83.6709 10.5616 84.6554 10.5892C84.9011 10.596 85.142 10.6785 85.3575 10.8298C85.573 10.9812 85.7568 11.1968 85.8934 11.4584L86.5991 12.814L88.1547 13.9815C88.8746 14.5196 89.4424 15.3365 89.7762 16.3145C90.1101 17.2925 90.1927 18.381 90.0122 19.423L89.7727 20.8178C88.9294 25.7547 89.0096 30.877 90.0069 35.7667L90.4888 38.1194C90.5139 38.242 90.5157 38.3704 90.4942 38.4941C90.4726 38.6177 90.4283 38.7329 90.3649 38.8302C90.3015 38.9274 90.2209 39.0039 90.1297 39.0531C90.0386 39.1023 89.9395 39.1229 89.8409 39.1132L89.2812 39.058C89.1359 39.0439 88.9992 38.9647 88.8949 38.8343C88.7907 38.7039 88.7257 38.5307 88.7114 38.345L88.6187 37.159C88.617 37.1372 88.6091 37.117 88.5964 37.1023C88.5837 37.0876 88.5672 37.0795 88.5501 37.0795C88.533 37.0795 88.5165 37.0876 88.5039 37.1023C88.4912 37.117 88.4832 37.1372 88.4815 37.159L88.3919 38.3072C88.3767 38.5012 88.3064 38.6813 88.1943 38.8132C88.0822 38.9451 87.9362 39.0197 87.7839 39.0227L79.8643 39.1787C79.861 39.1787 79.8577 39.1789 79.8544 39.1789C79.693 39.1793 79.5379 39.0986 79.4224 38.9542Z" fill="#3F3D56"/>
<path d="M83.7926 7.40595C83.8065 8.01902 84.1389 8.37371 84.547 8.69482C84.9551 9.01594 85.4321 9.15518 85.8995 9.28948C85.9623 9.33217 86.0326 9.35343 86.1036 9.35119C86.1747 9.34896 86.2441 9.32332 86.3051 9.27674C86.3662 9.23016 86.4168 9.16422 86.4522 9.08528C86.4875 9.00633 86.5064 8.91705 86.507 8.82605L86.9356 6.73835C87.0872 6.07146 87.1976 5.39031 87.2656 4.70121C87.3688 3.37528 87.1234 1.94891 86.4007 0.990236C85.6779 0.0315582 84.4245 -0.308997 83.5584 0.429649C82.5305 -1.25131 77.8323 2.46256 78.9913 3.63146C79.1974 3.8394 79.5126 3.57628 79.7743 3.55077C80.036 3.52527 80.3293 3.58421 80.4955 3.84427C80.7127 4.18404 80.6181 4.69016 80.7076 5.11401C80.7446 5.26314 80.8043 5.40141 80.8833 5.52085C80.9623 5.64029 81.0589 5.73853 81.1677 5.80991C81.2764 5.88129 81.3951 5.92439 81.517 5.93673C81.6388 5.94907 81.7613 5.93041 81.8775 5.88182C82.0939 5.7453 82.2974 5.57774 82.4842 5.38236C82.685 5.21115 82.9386 5.08465 83.1646 5.19263C83.4624 5.33496 83.5683 5.80189 83.5952 6.20751C83.6406 6.61206 83.7065 7.01239 83.7926 7.40595Z" fill="#2F2E41"/>
<path opacity="0.2" d="M83.0016 19.0292L82.45 27.6814L79.5542 36.6867L83.829 27.8579L83.0016 19.0292Z" fill="black"/>
<path d="M78.877 40.0403C79.0351 39.8777 79.1634 39.6728 79.2529 39.4399C79.3425 39.207 79.391 38.9518 79.3952 38.6923C79.3994 38.4328 79.3591 38.1752 79.2771 37.9378C79.1951 37.7004 79.0735 37.4889 78.9208 37.3182L80.7657 31.4672L78.2556 32.1162L76.8885 37.5729C76.6815 37.9204 76.5813 38.3531 76.6068 38.7889C76.6323 39.2247 76.7818 39.6334 77.0269 39.9375C77.272 40.2417 77.5957 40.4201 77.9367 40.439C78.2777 40.458 78.6123 40.3161 78.877 40.0403V40.0403Z" fill="#FFB8B8"/>
<path d="M78.7427 37.4598L77.3218 36.8041C77.1754 36.7355 77.0544 36.5992 76.9826 36.4221C76.9107 36.245 76.8933 36.0399 76.9336 35.8471L79.2775 24.8607L79.6349 14.9314C79.6457 14.6317 79.7028 14.3377 79.8031 14.0666C79.9034 13.7955 80.0448 13.5525 80.2191 13.352C80.3933 13.1514 80.597 12.9973 80.8182 12.8984C81.0395 12.7995 81.2738 12.758 81.5077 12.7761C81.7416 12.7943 81.9703 12.8718 82.1806 13.0041C82.3908 13.1365 82.5785 13.3211 82.7325 13.5471C82.8866 13.7731 83.004 14.0361 83.078 14.3208C83.152 14.6055 83.181 14.9062 83.1634 15.2053L82.5252 26.0777L79.5386 36.9756C79.4933 37.1403 79.407 37.2813 79.293 37.377C79.179 37.4727 79.0436 37.5177 78.9076 37.5052C78.8513 37.4997 78.7958 37.4844 78.7427 37.4598Z" fill="#3F3D56"/>
<path d="M93.3855 40.6141C93.4825 40.3862 93.5392 40.1338 93.5518 39.8747C93.5643 39.6156 93.5324 39.3561 93.4581 39.1146C93.3839 38.873 93.2692 38.6553 93.1221 38.4766C92.975 38.298 92.7992 38.1628 92.6069 38.0806L92.5488 31.7711L90.4278 33.6084L90.8081 39.3183C90.7217 39.7411 90.7594 40.1898 90.914 40.5794C91.0687 40.969 91.3296 41.2724 91.6473 41.4321C91.965 41.5918 92.3174 41.5968 92.6378 41.446C92.9582 41.2953 93.2242 40.9993 93.3855 40.6141L93.3855 40.6141Z" fill="#FFB8B8"/>
<path d="M92.4851 38.2991L90.9766 38.395C90.8209 38.4039 90.6683 38.3379 90.5487 38.2099C90.4291 38.0819 90.3512 37.9012 90.3305 37.7034L89.1877 26.4088L86.5298 17.0698C86.4496 16.7879 86.4139 16.4884 86.4249 16.1888C86.4359 15.8891 86.4933 15.5952 86.5937 15.3241C86.6942 15.0531 86.8358 14.8104 87.0101 14.61C87.1845 14.4096 87.3883 14.2557 87.6096 14.1571C87.8309 14.0584 88.0652 14.0171 88.2991 14.0355C88.533 14.0539 88.7616 14.1317 88.9718 14.2642C89.182 14.3968 89.3695 14.5815 89.5234 14.8077C89.6773 15.0339 89.7946 15.297 89.8684 15.5818L92.5508 25.9296L93.0739 37.4596C93.0817 37.6339 93.0445 37.8066 92.968 37.9512C92.8916 38.0957 92.7802 38.2041 92.651 38.2597C92.5973 38.2824 92.5415 38.2956 92.4851 38.2991Z" fill="#3F3D56"/>
<path d="M110.593 73.9747H58.0535C58.0169 73.9747 57.9818 73.9561 57.9559 73.923C57.9301 73.8899 57.9156 73.845 57.9156 73.7982C57.9156 73.7513 57.9301 73.7064 57.9559 73.6733C57.9818 73.6402 58.0169 73.6216 58.0535 73.6216H110.593C110.629 73.6216 110.665 73.6402 110.69 73.6733C110.716 73.7064 110.731 73.7513 110.731 73.7982C110.731 73.845 110.716 73.8899 110.69 73.923C110.665 73.9561 110.629 73.9747 110.593 73.9747Z" fill="#3F3D56"/>
<path d="M48.5714 35.8524C47.7794 35.8524 47.1496 35.5509 46.6992 34.9559C45.6813 33.6113 45.745 31.0195 45.7963 28.9369C45.8112 28.331 45.8252 27.7587 45.811 27.2793L45.8109 27.2721C45.8145 26.3355 46.1066 25.4385 46.6237 24.776C47.1408 24.1135 47.8411 23.7391 48.5726 23.734H55.1387C55.9297 23.734 56.5589 24.0352 57.009 24.6293C58.0269 25.9728 57.9639 28.5641 57.9132 30.6461C57.8984 31.2533 57.8845 31.8268 57.899 32.3071C57.8964 33.2451 57.6047 34.1438 57.0873 34.8078C56.5698 35.4718 55.8685 35.8472 55.136 35.8524H48.5714ZM46.0867 27.2696C46.1011 27.7604 46.087 28.3373 46.0719 28.948C46.0223 30.9639 45.9606 33.4729 46.8972 34.7101C47.2992 35.2412 47.8469 35.4993 48.5714 35.4993H55.1356C55.7944 35.4948 56.4252 35.1577 56.8909 34.5612C57.3567 33.9647 57.6199 33.1569 57.6233 32.3133C57.6085 31.8281 57.6226 31.2486 57.6376 30.6351C57.6866 28.6197 57.7476 26.1113 56.8111 24.8752C56.4094 24.3449 55.8623 24.0871 55.1388 24.0871H48.573C47.9149 24.0919 47.2848 24.4286 46.8193 25.0244C46.3539 25.6202 46.0907 26.4269 46.0867 27.2696Z" fill="#3F3D56"/>
<path d="M12.9758 12.9841C11.8245 12.9752 10.6982 12.5527 9.72501 11.7649C8.29931 10.6305 7.22282 8.8137 6.91565 7.02372L6.88486 6.8443L7.27014 6.75601C10.303 5.89891 13.7333 8.66092 14.4682 12.5541L14.5004 12.7248L14.3672 12.767C13.912 12.9112 13.4448 12.9841 12.9758 12.9841ZM7.21838 7.12667C7.5493 8.7687 8.55365 10.417 9.87058 11.4649C11.1439 12.5084 12.6869 12.8676 14.1656 12.4648C13.3967 8.83767 10.1772 6.29242 7.327 7.10167L7.21838 7.12667Z" fill="#3F3D56"/>
<path d="M9.15019 33.0506C8.24797 33.0506 7.51499 32.5336 7.08466 31.5905C6.84346 31.0419 6.71668 30.4229 6.71652 29.7933C6.71637 29.1637 6.84285 28.5447 7.08378 27.9958C7.52099 27.0367 8.27146 26.5163 9.19828 26.5345H17.9471C18.8708 26.5194 19.6218 27.0374 20.0593 27.9977C20.3002 28.5464 20.4268 29.1654 20.4267 29.7949C20.4267 30.4244 20.3001 31.0433 20.059 31.5919C19.6217 32.55 18.8709 33.0617 17.945 33.0501H9.19605C9.18071 33.0504 9.16543 33.0505 9.15019 33.0506ZM9.15531 26.8872C8.35071 26.8872 7.70077 27.3428 7.32197 28.1739C7.10492 28.6683 6.99098 29.226 6.99113 29.7932C6.99127 30.3605 7.1055 30.9181 7.3228 31.4123C7.70798 32.2566 8.37123 32.7135 9.19398 32.697H17.9471C18.7707 32.7138 19.436 32.257 19.8209 31.4137C20.038 30.9194 20.1521 30.3619 20.1521 29.7947C20.1522 29.2276 20.0382 28.67 19.8211 28.1757C19.4359 27.3302 18.7705 26.875 17.9491 26.8877H9.19539C9.18202 26.8874 9.16859 26.8872 9.15531 26.8872H9.15531Z" fill="#3F3D56"/>
<path d="M50.8166 27.933H48.0586C47.8758 27.933 47.7004 27.84 47.5711 27.6744C47.4418 27.5088 47.3691 27.2843 47.3691 27.0501C47.3691 26.816 47.4418 26.5914 47.5711 26.4258C47.7004 26.2603 47.8758 26.1672 48.0586 26.1672H50.8166C50.9995 26.1672 51.1748 26.2603 51.3042 26.4258C51.4335 26.5914 51.5061 26.816 51.5061 27.0501C51.5061 27.2843 51.4335 27.5088 51.3042 27.6744C51.1748 27.84 50.9995 27.933 50.8166 27.933Z" fill="#545AD8"/>
<path d="M50.8166 30.7582H48.0586C47.8758 30.7582 47.7004 30.6652 47.5711 30.4996C47.4418 30.334 47.3691 30.1095 47.3691 29.8753C47.3691 29.6412 47.4418 29.4166 47.5711 29.251C47.7004 29.0855 47.8758 28.9924 48.0586 28.9924H50.8166C50.9995 28.9924 51.1748 29.0855 51.3042 29.251C51.4335 29.4166 51.5061 29.6412 51.5061 29.8753C51.5061 30.1095 51.4335 30.334 51.3042 30.4996C51.1748 30.6652 50.9995 30.7582 50.8166 30.7582Z" fill="#545AD8"/>
<path d="M50.8166 33.5834H48.0586C47.8758 33.5834 47.7004 33.4904 47.5711 33.3248C47.4418 33.1592 47.3691 32.9347 47.3691 32.7005C47.3691 32.4664 47.4418 32.2418 47.5711 32.0762C47.7004 31.9106 47.8758 31.8176 48.0586 31.8176H50.8166C50.9995 31.8176 51.1748 31.9106 51.3042 32.0762C51.4335 32.2418 51.5061 32.4664 51.5061 32.7005C51.5061 32.9347 51.4335 33.1592 51.3042 33.3248C51.1748 33.4904 50.9995 33.5834 50.8166 33.5834Z" fill="#545AD8"/>
<path d="M55.6431 27.933H52.8851C52.7022 27.933 52.5269 27.84 52.3976 27.6744C52.2682 27.5088 52.1956 27.2843 52.1956 27.0501C52.1956 26.816 52.2682 26.5914 52.3976 26.4258C52.5269 26.2603 52.7022 26.1672 52.8851 26.1672H55.6431C55.8259 26.1672 56.0013 26.2603 56.1306 26.4258C56.2599 26.5914 56.3326 26.816 56.3326 27.0501C56.3326 27.2843 56.2599 27.5088 56.1306 27.6744C56.0013 27.84 55.8259 27.933 55.6431 27.933Z" fill="#545AD8"/>
<path d="M55.6431 30.7582H52.8851C52.7022 30.7582 52.5269 30.6652 52.3976 30.4996C52.2682 30.334 52.1956 30.1095 52.1956 29.8753C52.1956 29.6412 52.2682 29.4166 52.3976 29.251C52.5269 29.0855 52.7022 28.9924 52.8851 28.9924H55.6431C55.8259 28.9924 56.0013 29.0855 56.1306 29.251C56.2599 29.4166 56.3326 29.6412 56.3326 29.8753C56.3326 30.1095 56.2599 30.334 56.1306 30.4996C56.0013 30.6652 55.8259 30.7582 55.6431 30.7582Z" fill="#545AD8"/>
<path d="M55.6431 33.5834H52.8851C52.7022 33.5834 52.5269 33.4904 52.3976 33.3248C52.2682 33.1592 52.1956 32.9347 52.1956 32.7005C52.1956 32.4664 52.2682 32.2418 52.3976 32.0762C52.5269 31.9106 52.7022 31.8176 52.8851 31.8176H55.6431C55.8259 31.8176 56.0013 31.9106 56.1306 32.0762C56.2599 32.2418 56.3326 32.4664 56.3326 32.7005C56.3326 32.9347 56.2599 33.1592 56.1306 33.3248C56.0013 33.4904 55.8259 33.5834 55.6431 33.5834Z" fill="#545AD8"/>
<path d="M61.9175 15.3857H4.16551V15.7389H61.9175V15.3857Z" fill="#3F3D56"/>
<path d="M57.3668 44.9725H8.55066C7.34417 44.9707 6.18748 44.3562 5.33436 43.2639C4.48124 42.1715 4.00136 40.6904 4 39.1455V8.7745C4.00136 7.22962 4.48124 5.74852 5.33436 4.65612C6.18748 3.56373 7.34417 2.94925 8.55066 2.94751H57.3668C58.5733 2.94925 59.73 3.56373 60.5831 4.65612C61.4362 5.74852 61.9161 7.22962 61.9175 8.7745V39.1455C61.9161 40.6904 61.4362 42.1715 60.5831 43.2639C59.73 44.3562 58.5733 44.9707 57.3668 44.9725ZM8.55066 3.30066C7.41729 3.30231 6.33071 3.87955 5.5293 4.90574C4.72788 5.93192 4.27709 7.32325 4.2758 8.7745V39.1455C4.27709 40.5967 4.72789 41.9881 5.5293 43.0142C6.33071 44.0404 7.41729 44.6177 8.55066 44.6193H57.3668C58.5002 44.6177 59.5868 44.0404 60.3882 43.0142C61.1896 41.9881 61.6404 40.5967 61.6417 39.1455V8.7745C61.6404 7.32325 61.1896 5.93192 60.3882 4.90573C59.5868 3.87954 58.5002 3.30231 57.3668 3.30066H8.55066Z" fill="#3F3D56"/>
</g>
<defs>
<filter id="filter0_d_237_694" x="0" y="0" width="114.731" height="82" filterUnits="userSpaceOnUse" color-interpolation-filters="sRGB">
<feFlood flood-opacity="0" result="BackgroundImageFix"/>
<feColorMatrix in="SourceAlpha" type="matrix" values="0 0 0 0 0 0 0 0 0 0 0 0 0 0 0 0 0 0 127 0" result="hardAlpha"/>
<feOffset dy="4"/>
<feGaussianBlur stdDeviation="2"/>
<feComposite in2="hardAlpha" operator="out"/>
<feColorMatrix type="matrix" values="0 0 0 0 0 0 0 0 0 0 0 0 0 0 0 0 0 0 0.45 0"/>
<feBlend mode="normal" in2="BackgroundImageFix" result="effect1_dropShadow_237_694"/>
<feBlend mode="normal" in="SourceGraphic" in2="effect1_dropShadow_237_694" result="shape"/>
</filter>
<clipPath id="clip0_237_694">
<rect width="106.731" height="74" fill="white" transform="translate(4)"/>
</clipPath>
</defs>
</svg>
