<svg width="115" height="82" viewBox="0 0 115 82" fill="none" xmlns="http://www.w3.org/2000/svg">
<g clip-path="url(#clip0_237_732)" filter="url(#filter0_d_237_732)">
<path d="M61.0837 10.394C64.6244 8.24995 69.6093 7.42801 73.5098 9.10069C69.1188 10.6635 65.5436 13.4492 63.417 16.9648C62.6028 18.323 61.8697 19.9032 60.1899 20.531C59.1446 20.9216 57.911 20.8462 56.8286 20.5308C55.7462 20.2153 54.7834 19.6795 53.834 19.1494L53.5493 19.1213C55.2389 15.7892 57.543 12.5381 61.0837 10.394Z" fill="#F0F0F0"/>
<path d="M73.4784 9.17181C69.8366 9.26533 66.3233 10.2971 63.4375 12.1206C62.8078 12.5042 62.2558 12.9666 61.8017 13.4911C61.3795 14.0137 61.1358 14.6194 61.0958 15.2453C61.0442 15.8283 61.0738 16.4295 60.8502 16.9921C60.7305 17.2787 60.5383 17.5413 60.2862 17.7627C60.034 17.9841 59.7276 18.1593 59.3871 18.2768C58.5478 18.5877 57.6223 18.6329 56.7154 18.6514C55.7084 18.6718 54.662 18.68 53.7462 19.0687C53.6353 19.1158 53.5526 18.9719 53.6634 18.9248C55.2567 18.2486 57.1187 18.6898 58.7933 18.2873C59.5747 18.0996 60.2918 17.7176 60.6056 17.0785C60.8799 16.5196 60.8501 15.8996 60.8961 15.309C60.9242 14.6979 61.1344 14.1017 61.5083 13.5726C61.9284 13.0309 62.4577 12.5518 63.0739 12.1557C64.4436 11.2458 65.9793 10.5181 67.6248 9.9993C69.4988 9.39864 71.4843 9.06518 73.4954 9.01335C73.6199 9.01019 73.6021 9.16865 73.4784 9.1718V9.17181Z" fill="white"/>
<path d="M64.3246 11.4887C64.0171 11.0503 63.9097 10.5365 64.0216 10.0392C64.1336 9.54187 64.4575 9.09335 64.9356 8.77374C65.0326 8.70935 65.1592 8.8299 65.0621 8.89438C64.6162 9.19132 64.3145 9.60914 64.2115 10.0724C64.1084 10.5357 64.2107 11.0139 64.5 11.4208C64.5627 11.5092 64.3869 11.5766 64.3246 11.4887V11.4887Z" fill="white"/>
<path d="M61.0745 14.9469C62.289 15.2252 63.5869 15.118 64.7094 14.6467C64.8205 14.5999 64.9032 14.7438 64.7922 14.7905C63.623 15.2792 62.2721 15.3885 61.009 15.0966C60.8886 15.0687 60.9547 14.9192 61.0745 14.9469Z" fill="white"/>
<path d="M69.4896 9.6094C69.5654 9.79936 69.6976 9.9709 69.8744 10.1086C70.0511 10.2463 70.2668 10.3459 70.502 10.3984C70.6228 10.425 70.5565 10.5746 70.4365 10.5481C70.1769 10.4891 69.9389 10.3789 69.7432 10.2271C69.5476 10.0753 69.4003 9.88654 69.3141 9.6773C69.304 9.65813 69.3031 9.63652 69.3117 9.61686C69.3203 9.5972 69.3377 9.58096 69.3604 9.57144C69.3837 9.56255 69.4103 9.56155 69.4345 9.56866C69.4587 9.57577 69.4785 9.59041 69.4896 9.6094H69.4896Z" fill="white"/>
<path d="M76.6023 21.0523C76.5264 21.0374 76.4504 21.0226 76.3732 21.0086C75.3505 20.813 74.3102 20.6859 73.2625 20.6285C73.1816 20.623 73.0994 20.6185 73.0185 20.6149C70.4924 20.4986 67.962 20.7678 65.5558 21.4087C64.5986 21.6645 63.6666 21.9796 62.7677 22.3513C61.5263 22.8646 60.2302 23.5022 58.8938 23.6452C58.7546 23.6614 58.6143 23.6706 58.4737 23.6725L53.5296 19.4081C53.5243 19.3938 53.5177 19.3804 53.5124 19.366L53.3055 19.2031C53.3502 19.1813 53.3972 19.1595 53.4419 19.1376C53.4678 19.1249 53.4948 19.1131 53.5206 19.1003C53.5382 19.0921 53.5559 19.084 53.5712 19.0758C53.5771 19.073 53.583 19.0703 53.5876 19.0685C53.6029 19.0603 53.6182 19.054 53.6324 19.0467C53.8944 18.924 54.158 18.8025 54.4231 18.6824C54.4243 18.6815 54.4243 18.6815 54.4266 18.6815C56.4494 17.7705 58.5827 16.9899 60.7927 16.4996C60.8592 16.4848 60.9268 16.4691 60.9956 16.4563C61.9932 16.2398 63.0108 16.0906 64.0382 16.01C64.6009 15.9673 65.1659 15.948 65.7309 15.9522C67.191 15.9653 68.6395 16.1666 70.0233 16.5487C72.7817 17.3107 75.2121 18.7874 76.5054 20.8908C76.5385 20.9446 76.5705 20.9975 76.6023 21.0523Z" fill="#F0F0F0"/>
<path d="M76.5252 21.0942C73.5487 19.3715 69.9857 18.4614 66.3423 18.4932C65.5578 18.4886 64.7773 18.5854 64.0296 18.78C63.3087 18.989 62.6692 19.3523 62.1776 19.8323C61.7082 20.2723 61.2902 20.767 60.6985 21.1058C60.3925 21.2756 60.0461 21.3904 59.6822 21.4427C59.3182 21.495 58.9449 21.4837 58.5867 21.4095C57.6882 21.2435 56.916 20.8229 56.1784 20.39C55.3593 19.9093 54.5179 19.3994 53.5012 19.2578C53.378 19.2406 53.4177 19.0849 53.5407 19.1021C55.3096 19.3485 56.4722 20.6197 58.1048 21.1248C58.8667 21.3606 59.7198 21.4095 60.4397 21.0541C61.0692 20.7433 61.5008 20.2335 61.9714 19.7846C62.4426 19.3105 63.0483 18.9383 63.7355 18.7004C64.4687 18.4752 65.2433 18.3538 66.0262 18.3417C67.7881 18.2912 69.5488 18.4681 71.2437 18.866C73.1811 19.3112 75.0113 20.0249 76.6552 20.9761C76.7569 21.035 76.6262 21.1527 76.5252 21.0942L76.5252 21.0942Z" fill="white"/>
<path d="M67.5147 18.4263C67.5912 17.9245 67.8828 17.4613 68.3375 17.1194C68.7921 16.7776 69.3802 16.5793 69.9966 16.5601C70.1214 16.5566 70.134 16.7153 70.009 16.7189C69.4349 16.7359 68.8872 16.9206 68.4646 17.2396C68.042 17.5587 67.7725 17.991 67.7047 18.4586C67.6898 18.5603 67.4999 18.5273 67.5147 18.4263H67.5147Z" fill="white"/>
<path d="M62.3797 19.5834C63.1451 20.4051 64.2601 20.96 65.5025 21.1377C65.6256 21.1552 65.5859 21.3109 65.463 21.2934C64.1706 21.1065 63.0116 20.5271 62.2175 19.6706C62.1418 19.589 62.3045 19.5022 62.3797 19.5834V19.5834Z" fill="white"/>
<path d="M73.0189 19.4749C72.94 19.664 72.9196 19.8662 72.9595 20.0634C72.9995 20.2606 73.0985 20.4465 73.2478 20.6046C73.3247 20.6854 73.1619 20.7721 73.0856 20.6918C72.9216 20.5165 72.8125 20.3111 72.7678 20.0933C72.7231 19.8755 72.7441 19.6521 72.829 19.4425C72.835 19.4222 72.8502 19.4046 72.8715 19.3931C72.8928 19.3816 72.9186 19.3773 72.9437 19.3809C72.9688 19.3853 72.9908 19.3976 73.0049 19.4152C73.019 19.4328 73.024 19.4543 73.0189 19.4749V19.4749Z" fill="white"/>
<path d="M60.1495 13.5837H59.7664V4.97975C59.7664 4.3258 59.6092 3.67825 59.304 3.07408C58.9987 2.46991 58.5512 1.92095 57.9871 1.45853C57.423 0.996122 56.7533 0.629318 56.0163 0.379062C55.2792 0.128806 54.4893 3.52547e-07 53.6915 0H31.4542C30.6564 -1.41013e-06 29.8665 0.128802 29.1294 0.379056C28.3924 0.62931 27.7227 0.996113 27.1586 1.45852C26.5945 1.92094 26.147 2.4699 25.8417 3.07407C25.5364 3.67824 25.3793 4.32578 25.3793 4.97973V52.1818C25.3793 53.5025 26.0193 54.7691 27.1586 55.703C28.2978 56.6369 29.843 57.1615 31.4541 57.1615H53.6915C55.3027 57.1615 56.8478 56.6369 57.9871 55.703C59.1263 54.7691 59.7664 53.5025 59.7664 52.1818V19.7082H60.1495V13.5837Z" fill="#3F3D56"/>
<path d="M53.9366 1.29554H51.0339C51.1674 1.56381 51.2184 1.85488 51.1823 2.14309C51.1462 2.43131 51.0242 2.70784 50.8271 2.94831C50.6299 3.18878 50.3637 3.38582 50.0518 3.52207C49.7398 3.65831 49.3918 3.72959 49.0384 3.72961H36.2989C35.9454 3.72959 35.5974 3.65832 35.2855 3.52207C34.9735 3.38582 34.7073 3.18879 34.5101 2.94831C34.313 2.70784 34.191 2.43131 34.1549 2.14309C34.1189 1.85487 34.1698 1.56381 34.3033 1.29553H31.5922C30.389 1.29553 29.2351 1.68734 28.3843 2.38475C27.5335 3.08216 27.0555 4.02805 27.0555 5.01434V52.1471C27.0555 52.6355 27.1729 53.1191 27.4009 53.5703C27.6289 54.0215 27.963 54.4314 28.3843 54.7767C28.8056 55.1221 29.3057 55.396 29.8561 55.5829C30.4065 55.7698 30.9964 55.866 31.5922 55.866H53.9366C54.5324 55.866 55.1223 55.7698 55.6727 55.5829C56.2231 55.396 56.7232 55.1221 57.1445 54.7767C57.5658 54.4314 57.8999 54.0215 58.1279 53.5703C58.3559 53.1191 58.4733 52.6355 58.4733 52.1471V5.01434C58.4733 4.02805 57.9953 3.08216 57.1445 2.38475C56.2937 1.68734 55.1398 1.29554 53.9366 1.29554Z" fill="white"/>
<path d="M43.1938 40.7251C41.5483 40.7264 39.9188 40.4616 38.3983 39.9461C36.8779 39.4305 35.4963 38.6742 34.3329 37.7204C33.1694 36.7667 32.2467 35.6342 31.6178 34.3878C30.9888 33.1415 30.6659 31.8057 30.6674 30.4569C30.6651 28.5629 31.3027 26.7054 32.5096 25.0903C33.7166 23.4753 35.4456 22.1659 37.505 21.3072C38.9979 20.6847 40.6276 20.3133 42.2982 20.215C43.9688 20.1167 45.6465 20.2935 47.2325 20.7349C50.0413 21.5196 52.4191 23.096 53.9425 25.1834C55.4659 27.2708 56.0359 29.7338 55.5511 32.1335C55.0662 34.5333 53.558 36.714 51.295 38.2874C49.032 39.8608 46.1611 40.7247 43.1938 40.7251L43.1938 40.7251ZM43.1938 20.5913C41.2934 20.5867 39.4194 20.9552 37.7284 21.6659C36.2503 22.2832 34.9438 23.1443 33.891 24.1952C32.8381 25.2461 32.0617 26.4641 31.6104 27.7726C31.1591 29.0812 31.0427 30.4521 31.2685 31.7993C31.4943 33.1465 32.0573 34.4409 32.9224 35.6012C33.7875 36.7616 34.9358 37.7628 36.2953 38.542C37.6549 39.3212 39.1962 39.8617 40.8227 40.1294C42.4491 40.3971 44.1255 40.3863 45.7466 40.0976C47.3677 39.809 48.8985 39.2487 50.2429 38.4521C50.8929 38.0676 51.494 37.6304 52.037 37.1472C53.6251 35.7386 54.6778 33.981 55.0659 32.0895C55.4541 30.198 55.161 28.2548 54.2225 26.4978C53.284 24.7408 51.7409 23.2462 49.782 22.1971C47.8231 21.1481 45.5336 20.59 43.1938 20.5913Z" fill="#F0F0F0"/>
<path d="M16.051 21.3441C16.3948 21.3794 16.725 21.4761 17.0183 21.6274C17.3116 21.7786 17.5609 21.9808 17.7486 22.2196C17.9363 22.4584 18.0578 22.728 18.1047 23.0094C18.1515 23.2909 18.1225 23.5773 18.0196 23.8486L22.1815 26.6904L20.6917 29.1848L14.883 25.104C14.3386 24.9322 13.8899 24.6026 13.622 24.1777C13.3542 23.7529 13.2858 23.2622 13.4297 22.7988C13.5737 22.3353 13.92 21.9313 14.4032 21.6631C14.8863 21.395 15.4726 21.2815 16.051 21.3441L16.051 21.3441Z" fill="#FFB6B6"/>
<path d="M54.9211 33.1951C54.8376 32.4596 54.4925 31.1374 54.1997 30.6485C53.2996 28.7173 47.4838 27.13 46.7028 26.9254L46.5047 25.1201L38.4239 24.4073L37.3988 26.716L34.5006 27.6073C34.3039 27.6674 34.1258 27.7625 33.9791 27.8858C33.8325 28.009 33.7209 28.1573 33.6524 28.32L31.0522 28.9361L28.4863 29.5442L19.5722 24.3953L19.1513 24.6208L16.3382 26.1254L15.9042 26.3576L27.44 34.889L31.7251 34.0649L34.9476 33.4434L35.2227 34.3588L34.5105 37.5749C36.574 39.267 39.3055 40.3012 42.215 40.4918C45.1246 40.6825 48.0218 40.0171 50.387 38.6151L52.2176 37.2836C53.4935 36.1527 54.4352 34.7966 54.9701 33.3199L54.9211 33.1951Z" fill="#E4E4E4"/>
<path d="M45.0032 22.9309C48.0537 22.103 49.7078 19.4047 48.6978 16.9042C47.6879 14.4036 44.3962 13.0477 41.3458 13.8756C38.2953 14.7035 36.6412 17.4017 37.6512 19.9023C38.6611 22.4028 41.9528 23.7588 45.0032 22.9309Z" fill="#FFB6B6"/>
<path d="M38.5788 12.966C39.1444 12.3038 39.9933 11.8403 40.9566 11.6676C41.9091 11.507 42.9005 11.6561 43.7215 12.0834C44.6142 11.7886 45.5767 11.593 46.5224 11.6924C47.4681 11.7918 48.3949 12.2248 48.8325 12.9382C48.9245 13.123 49.0362 13.3008 49.1662 13.4696C49.5518 13.8912 50.2682 13.9459 50.9009 13.9661C50.581 14.1191 50.2611 14.272 49.9411 14.4249C50.2599 14.5467 50.5788 14.6685 50.8977 14.7903C50.4637 14.9261 50.0298 15.0619 49.5958 15.1977C50.6059 15.9255 50.8502 17.2208 50.4677 18.3068C50.1056 19.3349 49.2755 20.2004 48.3485 20.9414C48.1676 20.3885 48.3666 19.7891 48.499 19.2167C48.6389 18.6118 48.6614 17.9046 48.1447 17.4776C47.7962 17.1895 47.285 17.1025 46.803 17.0326C44.3716 16.6801 41.9177 16.4413 39.4532 16.3172C39.1233 16.2799 38.7873 16.308 38.4735 16.3992C37.8737 16.6177 37.6328 17.2177 37.459 17.7497C37.3757 16.8159 37.4422 15.8772 37.6568 14.9576C37.8212 14.2537 38.0802 13.5493 38.5788 12.966Z" fill="#2F2E41"/>
<path d="M46.1411 45.5629H39.2639C39.025 45.5629 38.796 45.4851 38.6271 45.3467C38.4582 45.2082 38.3633 45.0205 38.3633 44.8247C38.3633 44.6289 38.4582 44.4411 38.6271 44.3027C38.796 44.1642 39.025 44.0864 39.2639 44.0864H46.1411C46.38 44.0864 46.609 44.1642 46.7779 44.3027C46.9468 44.4411 47.0417 44.6289 47.0417 44.8247C47.0417 45.0205 46.9468 45.2082 46.7779 45.3467C46.609 45.4851 46.38 45.5629 46.1411 45.5629Z" fill="#545AD8"/>
<path d="M23.5743 6.05693H4.6579C4.48359 6.0567 4.31651 5.99978 4.19334 5.89866C4.07018 5.79754 4.00101 5.66049 4.00101 5.5176C4.00101 5.37471 4.07018 5.23766 4.19334 5.13654C4.31651 5.03542 4.48359 4.9785 4.6579 4.97827H23.5743C23.7488 4.97827 23.9161 5.03509 24.0395 5.13624C24.1629 5.23738 24.2322 5.37456 24.2322 5.5176C24.2322 5.66064 24.1629 5.79782 24.0395 5.89896C23.9161 6.0001 23.7488 6.05693 23.5743 6.05693Z" fill="#545AD8"/>
<path d="M34.496 9.50156H4.65789C4.48341 9.50156 4.31607 9.44475 4.19269 9.34361C4.06931 9.24247 4 9.1053 4 8.96227C4 8.81924 4.06931 8.68207 4.19269 8.58093C4.31607 8.47979 4.48341 8.42297 4.65789 8.42297H34.496C34.6705 8.42297 34.8378 8.47979 34.9612 8.58093C35.0846 8.68207 35.1539 8.81924 35.1539 8.96227C35.1539 9.1053 35.0846 9.24247 34.9612 9.34361C34.8378 9.44475 34.6705 9.50156 34.496 9.50156Z" fill="#545AD8"/>
<path d="M28.7621 12.7468H4.65792C4.48344 12.7468 4.3161 12.69 4.19272 12.5888C4.06934 12.4877 4.00003 12.3505 4.00003 12.2075C4.00003 12.0645 4.06934 11.9273 4.19272 11.8262C4.3161 11.725 4.48344 11.6682 4.65792 11.6682H28.7621C28.9366 11.6682 29.1039 11.725 29.2273 11.8262C29.3507 11.9273 29.42 12.0645 29.42 12.2075C29.42 12.3505 29.3507 12.4877 29.2273 12.5888C29.1039 12.69 28.9366 12.7468 28.7621 12.7468Z" fill="#CACACA"/>
<path d="M18.2501 15.9801H4.65792C4.48344 15.9801 4.3161 15.9233 4.19272 15.8221C4.06934 15.721 4.00003 15.5838 4.00003 15.4408C4.00003 15.2978 4.06934 15.1606 4.19272 15.0594C4.3161 14.9583 4.48344 14.9015 4.65792 14.9015H18.2501C18.4246 14.9015 18.5919 14.9583 18.7153 15.0594C18.8387 15.1606 18.908 15.2978 18.908 15.4408C18.908 15.5838 18.8387 15.721 18.7153 15.8221C18.5919 15.9233 18.4246 15.9801 18.2501 15.9801Z" fill="#CACACA"/>
<path d="M25.7587 19.2131H4.65789C4.48359 19.2129 4.31652 19.156 4.19336 19.0549C4.07021 18.9537 4.00104 18.8167 4.00104 18.6738C4.00104 18.5309 4.07021 18.3939 4.19336 18.2928C4.31652 18.1917 4.48359 18.1347 4.65789 18.1345H25.7587C25.933 18.1347 26.1001 18.1917 26.2232 18.2928C26.3464 18.3939 26.4155 18.5309 26.4155 18.6738C26.4155 18.8167 26.3464 18.9537 26.2232 19.0549C26.1001 19.156 25.933 19.2129 25.7587 19.2131Z" fill="#CACACA"/>
<path d="M85.2265 71.9755L83.5311 71.9753L82.7245 66.6146L85.2269 66.6148L85.2265 71.9755Z" fill="#9F616A"/>
<path d="M85.8936 73.8988L79.4207 73.8986V73.8315C79.4207 73.2838 79.6862 72.7585 80.1587 72.3712C80.6311 71.9839 81.2719 71.7663 81.9401 71.7663H81.9403L83.1226 71.031L85.3287 71.7664L85.8937 71.7664L85.8936 73.8988Z" fill="#2F2E41"/>
<path d="M84.2387 46.7812L83.4909 39.3077L82.9035 36.5025L86.1924 35.9071L87.2838 39.7475L86.3329 46.9886C86.5247 47.1813 86.6419 47.4166 86.6693 47.6642C86.6967 47.9119 86.6332 48.1606 86.4869 48.3784C86.3406 48.5963 86.1182 48.7733 85.8482 48.8867C85.5782 49.0001 85.2731 49.0448 84.9719 49.015C84.6707 48.9851 84.3873 48.8822 84.1581 48.7193C83.9288 48.5565 83.7642 48.3411 83.6854 48.101C83.6066 47.8609 83.6171 47.6069 83.7157 47.3717C83.8143 47.1365 83.9964 46.9309 84.2387 46.7812H84.2387Z" fill="#9F616A"/>
<path d="M76.2207 71.9755L74.5253 71.9753L73.7187 66.6146L76.221 66.6148L76.2207 71.9755Z" fill="#9F616A"/>
<path d="M73.5073 48.4755L72.7557 49.5412C72.7557 49.5412 71.9299 49.7262 72.1998 51.933C72.4697 54.1398 72.4813 67.2145 73.7878 68.8234L74.0241 70.2049L76.4912 70.3982L76.5535 69.1723L79.4952 52.1412C79.4952 52.1412 81.2277 68.8604 82.6609 69.2695L83.1786 70.6624L85.4395 70.6632L85.306 69.0217L85.4518 48.3027L73.5073 48.4755Z" fill="#2F2E41"/>
<path d="M72.681 49.4599L72.629 49.449C74.1804 44.6925 73.7329 38.5333 72.6375 31.9195L72.6375 31.8921L76.5974 28.9189H80.036L83.4448 30.7222C85.6486 31.6255 86.1494 33.5382 86.1542 33.5575L86.1576 33.5711L84.8073 37.4346L85.8246 48.608L85.8257 48.621L85.8199 48.633C85.4907 49.3172 84.6085 49.2198 83.5871 49.107C82.5674 48.9943 78.8097 50.0248 77.6575 50.0248C75.4058 50.0248 72.8419 49.4938 72.681 49.4599Z" fill="#E4E4E4"/>
<path d="M82.731 32.2282L84.2082 31.7014L86.1544 33.6575L87.732 39.9255L82.3284 39.2544L82.731 32.2282Z" fill="#E4E4E4"/>
<path d="M60.01 43.7865L66.7629 38.7281L69.1099 36.6306L71.6971 38.3985L68.6597 41.4562L61.0915 45.2711C61.023 45.5133 60.8677 45.7333 60.6456 45.9026C60.4234 46.072 60.1446 46.183 59.8449 46.2214C59.5451 46.2599 59.2383 46.224 58.9636 46.1184C58.689 46.0128 58.4591 45.8423 58.3036 45.6288C58.148 45.4153 58.0739 45.1685 58.0908 44.9202C58.1076 44.672 58.2146 44.4335 58.3981 44.2354C58.5815 44.0374 58.833 43.8888 59.1203 43.8088C59.4075 43.7288 59.7173 43.721 60.01 43.7865L60.01 43.7865Z" fill="#9F616A"/>
<path d="M66.6159 38.7832L68.4863 36.7922C68.5018 36.7637 70.0535 33.9211 71.3986 32.6861C72.7783 31.4191 73.8646 32.067 73.8754 32.074L73.9024 32.0907L73.9775 36.7694L68.7987 41.842L66.6159 38.7832Z" fill="#E4E4E4"/>
<path d="M81.0871 26.1184C81.366 24.7098 80.199 23.3825 78.4806 23.1539C76.7622 22.9253 75.143 23.882 74.8642 25.2906C74.5853 26.6993 75.7523 28.0265 77.4707 28.2551C79.1892 28.4837 80.8083 27.5271 81.0871 26.1184Z" fill="#9F616A"/>
<path d="M75.0939 25.321C75.0939 25.321 75.0686 24.4126 74.9285 24.0106C74.7884 23.6087 74.5082 23.2642 74.6483 23.2642C74.7884 23.2642 74.8585 22.9771 74.8585 22.9771C74.8585 22.9771 74.9986 22.9196 75.0686 22.9771C75.1387 23.0345 75.2087 22.5751 75.2087 22.5751C75.2087 22.5751 75.2788 22.4028 75.3488 22.5177C75.4188 22.6325 75.4189 22.5751 75.4889 22.4028C75.5589 22.2306 75.9092 22.1157 75.9092 22.1157C75.9092 22.1157 77.2401 22.1732 77.4503 21.9435C77.6604 21.7138 80.0421 21.886 80.5324 22.1732C81.0227 22.4603 83.1943 23.4938 82.844 24.3551C82.4938 25.2165 81.4855 27.1996 81.2329 27.3985C80.8334 27.7129 80.5568 27.8262 78.6663 28.1346C78.2964 28.1949 76.408 27.205 76.408 27.0327C76.408 26.8604 76.6356 26.3141 76.2697 26.2392C75.7165 26.1258 75.6543 26.6991 75.5142 26.5268C75.3741 26.3545 75.0939 25.321 75.0939 25.321Z" fill="#2F2E41"/>
<path d="M76.8877 73.8988L70.4148 73.8986V73.8315C70.4148 73.2838 70.6803 72.7585 71.1528 72.3712C71.6253 71.9839 72.2661 71.7663 72.9342 71.7663H72.9344L74.1168 71.031L76.3228 71.7664L76.8878 71.7664L76.8877 73.8988Z" fill="#2F2E41"/>
<path d="M110.535 74.0001H4.54494C4.49323 74.0001 4.44365 73.9832 4.40708 73.9532C4.37052 73.9233 4.34998 73.8826 4.34998 73.8402C4.34998 73.7979 4.37052 73.7572 4.40708 73.7272C4.44365 73.6973 4.49323 73.6804 4.54494 73.6804H110.535C110.587 73.6804 110.636 73.6973 110.673 73.7272C110.709 73.7572 110.73 73.7979 110.73 73.8402C110.73 73.8826 110.709 73.9233 110.673 73.9532C110.636 73.9832 110.587 74.0001 110.535 74.0001Z" fill="#CACACA"/>
</g>
<defs>
<filter id="filter0_d_237_732" x="0" y="0" width="114.73" height="82" filterUnits="userSpaceOnUse" color-interpolation-filters="sRGB">
<feFlood flood-opacity="0" result="BackgroundImageFix"/>
<feColorMatrix in="SourceAlpha" type="matrix" values="0 0 0 0 0 0 0 0 0 0 0 0 0 0 0 0 0 0 127 0" result="hardAlpha"/>
<feOffset dy="4"/>
<feGaussianBlur stdDeviation="2"/>
<feComposite in2="hardAlpha" operator="out"/>
<feColorMatrix type="matrix" values="0 0 0 0 0 0 0 0 0 0 0 0 0 0 0 0 0 0 0.45 0"/>
<feBlend mode="normal" in2="BackgroundImageFix" result="effect1_dropShadow_237_732"/>
<feBlend mode="normal" in="SourceGraphic" in2="effect1_dropShadow_237_732" result="shape"/>
</filter>
<clipPath id="clip0_237_732">
<rect width="106.73" height="74" fill="white" transform="translate(4)"/>
</clipPath>
</defs>
</svg>
