<svg width="115" height="82" viewBox="0 0 115 82" fill="none" xmlns="http://www.w3.org/2000/svg">
<g clip-path="url(#clip0_237_772)" filter="url(#filter0_d_237_772)">
<path d="M42.8375 56.132C42.5144 55.4653 42.4789 54.7209 42.7375 54.0336C42.996 53.3462 43.5315 52.7612 44.2473 52.3841C44.4856 52.2593 44.2677 51.9359 44.0282 52.0613C43.2072 52.4834 42.5945 53.1501 42.306 53.935C42.0175 54.72 42.0733 55.5688 42.4628 56.3207C42.5723 56.5412 42.9463 56.351 42.8376 56.132H42.8375Z" fill="#3F3D56"/>
<path d="M42.9617 56.6348C42.3763 55.7417 42.5141 54.673 42.7246 53.7073C42.9444 52.6992 43.2326 51.6756 42.9833 50.6502C42.8702 50.1524 42.6026 49.6903 42.2088 49.313C42.0192 49.1357 41.7128 49.4005 41.9019 49.5773C42.6381 50.2659 42.7235 51.2647 42.6041 52.1518C42.4632 53.1981 42.064 54.2176 42.1136 55.2808C42.1265 55.8201 42.2888 56.349 42.5869 56.8234C42.617 56.8644 42.6644 56.8937 42.7191 56.9052C42.7738 56.9167 42.8316 56.9095 42.8802 56.885C42.9288 56.8605 42.9645 56.8208 42.9797 56.7741C42.9949 56.7274 42.9885 56.6774 42.9617 56.6348L42.9617 56.6348Z" fill="#3F3D56"/>
<path d="M46.1037 59.4866H38.7247C38.5521 59.4864 38.3866 59.4273 38.2645 59.3222C38.1424 59.2171 38.0738 59.0746 38.0736 58.9259V57.0597C38.0742 56.5801 38.2958 56.1204 38.6896 55.7813C39.0835 55.4421 39.6174 55.2514 40.1744 55.2509H41.2567C41.3142 55.2508 41.3694 55.2311 41.4101 55.1961C41.4508 55.161 41.4737 55.1135 41.4737 55.064V54.1919C41.4738 54.1094 41.512 54.0302 41.5798 53.9718C41.6476 53.9134 41.7395 53.8806 41.8354 53.8805H42.9929C43.0888 53.8806 43.1808 53.9134 43.2486 53.9718C43.3164 54.0302 43.3545 54.1094 43.3546 54.1919V55.064C43.3547 55.1135 43.3776 55.161 43.4183 55.1961C43.459 55.2311 43.5141 55.2508 43.5717 55.2509H44.654C45.2109 55.2514 45.7449 55.4421 46.1388 55.7813C46.5326 56.1204 46.7541 56.5801 46.7548 57.0597V58.9259C46.7546 59.0746 46.6859 59.2171 46.5639 59.3222C46.4418 59.4273 46.2763 59.4864 46.1037 59.4866Z" fill="#CCCCCC"/>
<path d="M42.5276 48.2793C42.6829 48.9893 42.4906 49.6164 42.098 49.6801C41.7053 49.7438 41.2611 49.2199 41.1057 48.51C40.9504 47.8001 41.4282 46.6195 41.4282 46.6195C41.4282 46.6195 42.3722 47.5694 42.5276 48.2793Z" fill="#545AD8"/>
<path d="M45.5072 51.5823C45.0152 52.1675 44.354 52.4783 44.0303 52.2766C43.7067 52.0749 43.8432 51.437 44.3352 50.8518C44.8272 50.2666 46.1514 49.7538 46.1514 49.7538C46.1514 49.7538 45.9992 50.9971 45.5072 51.5823Z" fill="#545AD8"/>
<path d="M29.2371 11.2837C28.9139 10.6169 28.8784 9.87256 29.137 9.1852C29.3955 8.49785 29.931 7.91277 30.6468 7.53567C30.8851 7.41089 30.6672 7.08755 30.4277 7.21296C29.6067 7.63505 28.994 8.30168 28.7055 9.08663C28.417 9.87158 28.4728 10.7204 28.8623 11.4723C28.9718 11.6928 29.3458 11.5026 29.2371 11.2837H29.2371Z" fill="#3F3D56"/>
<path d="M29.3612 11.7862C28.7758 10.8932 28.9135 9.8245 29.1241 8.85878C29.3439 7.85064 29.6321 6.82705 29.3828 5.80173C29.2697 5.30392 29.002 4.84181 28.6083 4.46453C28.4187 4.2872 28.1123 4.55202 28.3013 4.7288C29.0376 5.41735 29.123 6.4162 29.0036 7.30329C28.8627 8.34958 28.4635 9.36914 28.5131 10.4323C28.526 10.9716 28.6883 11.5005 28.9864 11.9749C29.0165 12.0159 29.0639 12.0452 29.1186 12.0567C29.1733 12.0682 29.2311 12.061 29.2797 12.0365C29.3283 12.012 29.364 11.9723 29.3792 11.9256C29.3944 11.8789 29.388 11.8289 29.3612 11.7863L29.3612 11.7862Z" fill="#3F3D56"/>
<path d="M32.5032 14.638H25.1242C24.9516 14.6379 24.7861 14.5788 24.664 14.4737C24.5419 14.3686 24.4733 14.2261 24.4731 14.0774V12.2112C24.4737 11.7316 24.6953 11.2719 25.0891 10.9327C25.4829 10.5936 26.0169 10.4029 26.5739 10.4024H27.6562C27.7137 10.4023 27.7689 10.3826 27.8096 10.3476C27.8503 10.3125 27.8731 10.265 27.8732 10.2155V9.34343C27.8733 9.26086 27.9115 9.18169 27.9793 9.12331C28.0471 9.06492 28.139 9.03208 28.2349 9.03198H29.3924C29.4883 9.03208 29.5803 9.06492 29.6481 9.12331C29.7159 9.18169 29.754 9.26086 29.7541 9.34343V10.2155C29.7542 10.265 29.7771 10.3125 29.8178 10.3476C29.8585 10.3826 29.9136 10.4023 29.9712 10.4024H31.0535C31.6104 10.4029 32.1444 10.5936 32.5382 10.9327C32.9321 11.2719 33.1536 11.7316 33.1543 12.2112V14.0774C33.1541 14.2261 33.0854 14.3686 32.9633 14.4737C32.8413 14.5788 32.6758 14.6379 32.5032 14.638Z" fill="#CCCCCC"/>
<path d="M28.9271 3.43082C29.0825 4.14076 28.8901 4.76792 28.4975 4.83162C28.1048 4.89532 27.6606 4.37143 27.5053 3.66149C27.3499 2.95155 27.8277 1.771 27.8277 1.771C27.8277 1.771 28.7717 2.72088 28.9271 3.43082Z" fill="#545AD8"/>
<path d="M31.9067 6.73377C31.4147 7.31897 30.7535 7.62984 30.4299 7.42811C30.1062 7.22639 30.2427 6.58847 30.7347 6.00327C31.2267 5.41807 32.5509 4.90527 32.5509 4.90527C32.5509 4.90527 32.3987 6.14857 31.9067 6.73377Z" fill="#545AD8"/>
<path d="M14.5621 33.8855H8.62996V35.7542H14.5621V33.8855Z" fill="#545AD8"/>
<path d="M14.5621 39.9899H8.62996V41.8586H14.5621V39.9899Z" fill="#545AD8"/>
<path d="M50.7336 73.8754H6.45966C5.80755 73.8748 5.18235 73.6515 4.72123 73.2544C4.26011 72.8574 4.00073 72.3191 4 71.7576V2.11785C4.00073 1.55635 4.26011 1.01804 4.72123 0.620999C5.18235 0.223962 5.80755 0.000629465 6.45966 0H50.7336C51.3857 0.000632098 52.0109 0.223964 52.4721 0.621C52.9332 1.01804 53.1926 1.55635 53.1933 2.11785V71.7576C53.1926 72.3191 52.9332 72.8574 52.4721 73.2544C52.0109 73.6515 51.3857 73.8748 50.7336 73.8754ZM6.45966 0.249158C5.88427 0.249719 5.33262 0.446777 4.92576 0.797102C4.51889 1.14743 4.29002 1.62241 4.28937 2.11785V71.7576C4.29002 72.253 4.51889 72.728 4.92576 73.0783C5.33262 73.4286 5.88427 73.6257 6.45966 73.6263H50.7336C51.309 73.6257 51.8607 73.4286 52.2675 73.0783C52.6744 72.728 52.9033 72.253 52.9039 71.7576V2.11785C52.9033 1.62241 52.6744 1.14743 52.2675 0.797102C51.8607 0.446777 51.309 0.249719 50.7336 0.249158H6.45966Z" fill="#3F3D56"/>
<path d="M53.0486 14.3829H4.14468V14.6321H53.0486V14.3829Z" fill="#3F3D56"/>
<path d="M53.0486 29.3364H4.14468V29.5856H53.0486V29.3364Z" fill="#3F3D56"/>
<path d="M53.0486 44.2898H4.14468V44.539H53.0486V44.2898Z" fill="#3F3D56"/>
<path d="M53.0486 59.2433H4.14468V59.4924H53.0486V59.2433Z" fill="#3F3D56"/>
<path d="M14.128 44.5994H9.20871C9.01691 44.5992 8.83303 44.5335 8.69741 44.4167C8.56179 44.2999 8.4855 44.1416 8.48528 43.9765V31.8923C8.4855 31.7272 8.56179 31.5688 8.69741 31.4521C8.83303 31.3353 9.01691 31.2696 9.20871 31.2694H14.128C14.3198 31.2696 14.5037 31.3353 14.6393 31.4521C14.775 31.5688 14.8512 31.7272 14.8515 31.8923V43.9765C14.8512 44.1416 14.775 44.2999 14.6393 44.4167C14.5037 44.5335 14.3198 44.5992 14.128 44.5994ZM9.20871 31.5186C9.09363 31.5187 8.9833 31.5581 8.90192 31.6282C8.82055 31.6982 8.77478 31.7932 8.77465 31.8923V43.9765C8.77478 44.0756 8.82055 44.1706 8.90192 44.2406C8.9833 44.3107 9.09363 44.3501 9.20871 44.3502H14.128C14.2431 44.3501 14.3534 44.3107 14.4348 44.2406C14.5162 44.1706 14.562 44.0756 14.5621 43.9765V31.8923C14.562 31.7932 14.5162 31.6982 14.4348 31.6282C14.3534 31.5581 14.2431 31.5187 14.128 31.5186H9.20871Z" fill="#3F3D56"/>
<path d="M23.6773 33.8855H17.7452V35.7542H23.6773V33.8855Z" fill="#545AD8"/>
<path d="M23.6773 39.9899H17.7452V41.8586H23.6773V39.9899Z" fill="#545AD8"/>
<path d="M23.2433 44.5994H18.3239C18.1321 44.5992 17.9482 44.5335 17.8126 44.4167C17.677 44.2999 17.6007 44.1416 17.6005 43.9765V31.8923C17.6007 31.7272 17.677 31.5688 17.8126 31.4521C17.9482 31.3353 18.1321 31.2696 18.3239 31.2694H23.2433C23.4351 31.2696 23.6189 31.3353 23.7546 31.4521C23.8902 31.5688 23.9665 31.7272 23.9667 31.8923V43.9765C23.9665 44.1416 23.8902 44.2999 23.7546 44.4167C23.6189 44.5335 23.4351 44.5992 23.2433 44.5994ZM18.3239 31.5186C18.2088 31.5187 18.0985 31.5581 18.0171 31.6282C17.9358 31.6982 17.89 31.7932 17.8899 31.8923V43.9765C17.89 44.0756 17.9358 44.1706 18.0171 44.2406C18.0985 44.3107 18.2088 44.3501 18.3239 44.3502H23.2433C23.3583 44.3501 23.4687 44.3107 23.55 44.2406C23.6314 44.1706 23.6772 44.0756 23.6773 43.9765V31.8923C23.6772 31.7932 23.6314 31.6982 23.55 31.6282C23.4687 31.5581 23.3583 31.5187 23.2433 31.5186H18.3239Z" fill="#3F3D56"/>
<path d="M38.1459 18.8114H32.2138V20.6801H38.1459V18.8114Z" fill="#545AD8"/>
<path d="M38.1459 24.9158H32.2138V26.7845H38.1459V24.9158Z" fill="#545AD8"/>
<path d="M37.7119 29.5253H32.7925C32.6007 29.5251 32.4169 29.4594 32.2812 29.3426C32.1456 29.2259 32.0693 29.0675 32.0691 28.9024V16.8182C32.0693 16.6531 32.1456 16.4947 32.2812 16.378C32.4169 16.2612 32.6007 16.1955 32.7925 16.1953H37.7119C37.9037 16.1955 38.0875 16.2612 38.2232 16.378C38.3588 16.4947 38.4351 16.6531 38.4353 16.8182V28.9024C38.4351 29.0675 38.3588 29.2259 38.2232 29.3426C38.0875 29.4594 37.9037 29.5251 37.7119 29.5253ZM32.7925 16.4445C32.6775 16.4446 32.5671 16.484 32.4858 16.5541C32.4044 16.6241 32.3586 16.7191 32.3585 16.8182V28.9024C32.3586 29.0015 32.4044 29.0965 32.4858 29.1665C32.5671 29.2366 32.6775 29.276 32.7925 29.2761H37.7119C37.8269 29.276 37.9373 29.2366 38.0187 29.1665C38.1 29.0965 38.1458 29.0015 38.1459 28.9024V16.8182C38.1458 16.7191 38.1 16.6241 38.0187 16.5541C37.9373 16.484 37.8269 16.4446 37.7119 16.4445H32.7925Z" fill="#3F3D56"/>
<path d="M47.2612 18.8114H41.329V20.6801H47.2612V18.8114Z" fill="#545AD8"/>
<path d="M47.2612 24.9158H41.329V26.7845H47.2612V24.9158Z" fill="#545AD8"/>
<path d="M46.8271 29.5253H41.9078C41.716 29.5251 41.5321 29.4594 41.3965 29.3426C41.2609 29.2259 41.1846 29.0675 41.1843 28.9024V16.8182C41.1846 16.6531 41.2609 16.4947 41.3965 16.378C41.5321 16.2612 41.716 16.1955 41.9078 16.1953H46.8271C47.0189 16.1955 47.2028 16.2612 47.3384 16.378C47.474 16.4947 47.5503 16.6531 47.5505 16.8182V28.9024C47.5503 29.0675 47.474 29.2259 47.3384 29.3426C47.2028 29.4594 47.0189 29.5251 46.8271 29.5253ZM41.9078 16.4445C41.7927 16.4446 41.6824 16.484 41.601 16.5541C41.5196 16.6241 41.4738 16.7191 41.4737 16.8182V28.9024C41.4738 29.0015 41.5196 29.0965 41.601 29.1665C41.6824 29.2366 41.7927 29.276 41.9078 29.2761H46.8271C46.9422 29.276 47.0525 29.2366 47.1339 29.1665C47.2153 29.0965 47.261 29.0015 47.2612 28.9024V16.8182C47.261 16.7191 47.2153 16.6241 47.1339 16.5541C47.0525 16.484 46.9422 16.4446 46.8271 16.4445H41.9078Z" fill="#3F3D56"/>
<path d="M30.9536 32.7695L25.4005 34.5662L26.1639 36.3154L31.717 34.5188L30.9536 32.7695Z" fill="#545AD8"/>
<path d="M33.4474 38.4838L27.8943 40.2805L28.6577 42.0298L34.2108 40.2331L33.4474 38.4838Z" fill="#545AD8"/>
<path d="M30.0643 44.4602C29.9172 44.4599 29.7737 44.4211 29.6528 44.3489C29.5319 44.2767 29.4394 44.1746 29.3875 44.056L24.4508 32.7441C24.3836 32.5895 24.3903 32.4182 24.4695 32.2678C24.5488 32.1174 24.694 32.0002 24.8735 31.942L29.4785 30.4521C29.5674 30.4233 29.6621 30.4099 29.757 30.4126C29.852 30.4153 29.9454 30.4341 30.0319 30.4679C30.1184 30.5017 30.1963 30.5498 30.2612 30.6096C30.3261 30.6693 30.3767 30.7395 30.4101 30.8161L35.3469 42.128C35.4141 42.2826 35.4074 42.4539 35.3281 42.6043C35.2489 42.7547 35.1036 42.8718 34.9242 42.9301H34.9241L30.3192 44.42C30.2377 44.4465 30.1514 44.4601 30.0643 44.4602ZM29.7332 30.6612C29.6809 30.6613 29.6291 30.6694 29.5803 30.6853L24.9753 32.1752C24.8676 32.2102 24.7805 32.2805 24.7329 32.3707C24.6854 32.4609 24.6813 32.5637 24.7217 32.6565L29.6584 43.9684C29.6784 44.0144 29.7088 44.0565 29.7477 44.0923C29.7867 44.1281 29.8335 44.157 29.8854 44.1773C29.9373 44.1976 29.9933 44.2089 30.0503 44.2105C30.1073 44.2121 30.164 44.2041 30.2174 44.1868L34.8223 42.6969C34.93 42.6619 35.0172 42.5916 35.0647 42.5014C35.1123 42.4111 35.1163 42.3083 35.076 42.2155L30.1393 30.9037C30.1081 30.8325 30.0526 30.7713 29.9801 30.7279C29.9076 30.6846 29.8215 30.6614 29.7332 30.6612Z" fill="#3F3D56"/>
<path d="M10.9869 17.9447L5.43384 19.7413L6.19725 21.4906L11.7503 19.6939L10.9869 17.9447Z" fill="#545AD8"/>
<path d="M13.4807 23.6589L7.92766 25.4556L8.69107 27.2048L14.2441 25.4082L13.4807 23.6589Z" fill="#545AD8"/>
<path d="M10.0976 29.6352C9.95052 29.635 9.80697 29.5962 9.68607 29.524C9.56518 29.4518 9.47266 29.3496 9.42082 29.2311L4.4841 17.9192C4.41686 17.7645 4.4236 17.5932 4.50284 17.4429C4.58209 17.2925 4.72736 17.1753 4.9068 17.117L9.51178 15.6271C9.60071 15.5983 9.69536 15.5849 9.79032 15.5876C9.88527 15.5903 9.97867 15.6091 10.0652 15.6429C10.1517 15.6767 10.2296 15.7249 10.2945 15.7846C10.3594 15.8444 10.41 15.9145 10.4434 15.9911L15.3802 27.303C15.4474 27.4577 15.4407 27.6289 15.3614 27.7793C15.2822 27.9297 15.1369 28.0469 14.9575 28.1052H14.9575L10.3525 29.5951C10.271 29.6216 10.1847 29.6352 10.0976 29.6352ZM9.7665 15.8362C9.71426 15.8363 9.66245 15.8445 9.61357 15.8603L5.00862 17.3502C4.90094 17.3852 4.81377 17.4555 4.76622 17.5458C4.71867 17.636 4.71463 17.7388 4.75498 17.8316L9.6917 29.1435C9.71175 29.1894 9.74211 29.2315 9.78106 29.2673C9.82 29.3032 9.86676 29.3321 9.91867 29.3524C9.97058 29.3726 10.0266 29.3839 10.0836 29.3855C10.1406 29.3872 10.1973 29.3791 10.2507 29.3618L14.8557 27.8719C14.9633 27.837 15.0505 27.7667 15.0981 27.6764C15.1456 27.5862 15.1496 27.4834 15.1093 27.3906L10.1726 16.0787C10.1415 16.0076 10.086 15.9463 10.0134 15.903C9.94089 15.8597 9.85477 15.8364 9.7665 15.8362Z" fill="#3F3D56"/>
<path d="M94.7182 31.1448C97.1954 31.1448 99.2035 29.4157 99.2035 27.2829C99.2035 25.15 97.1954 23.4209 94.7182 23.4209C92.2411 23.4209 90.2329 25.15 90.2329 27.2829C90.2329 29.4157 92.2411 31.1448 94.7182 31.1448Z" fill="#2F2E41"/>
<path d="M74.7921 44.9071C75.004 44.9778 75.2313 45.0076 75.458 44.9945C75.6847 44.9813 75.9053 44.9256 76.1043 44.8311C76.3033 44.7366 76.4758 44.6057 76.6096 44.4476C76.7435 44.2895 76.8354 44.108 76.879 43.916L89.2117 37.2163L86.967 35.0403L75.5449 42.3146C75.1655 42.2729 74.7814 42.3525 74.4655 42.5384C74.1496 42.7242 73.9239 43.0034 73.8311 43.3229C73.7383 43.6425 73.7849 43.9803 73.962 44.2723C74.1391 44.5642 74.4345 44.7901 74.7921 44.9071Z" fill="#FFB8B8"/>
<path d="M86.6369 38.9975C86.5278 38.9977 86.4203 38.9742 86.3244 38.9293C86.2285 38.8844 86.1473 38.8194 86.0881 38.7404L84.66 36.8295C84.5699 36.7089 84.5369 36.5631 84.5678 36.4222C84.5987 36.2813 84.6911 36.1559 84.8261 36.0718L89.6051 33.0978C89.837 32.9534 90.1001 32.8506 90.379 32.7954C90.6578 32.7402 90.9467 32.7337 91.2285 32.7763C91.5104 32.8189 91.7794 32.9097 92.0197 33.0434C92.2601 33.1771 92.4668 33.3509 92.6278 33.5546C92.7887 33.7583 92.9006 33.9878 92.9567 34.2293C93.0129 34.4709 93.0122 34.7197 92.9547 34.9611C92.8972 35.2024 92.7841 35.4314 92.622 35.6344C92.46 35.8375 92.2522 36.0104 92.0112 36.1431L86.9863 38.9094C86.8821 38.967 86.7608 38.9976 86.6369 38.9975Z" fill="#2F2E41"/>
<path d="M88.7707 72.3618L86.997 72.3617L86.1531 66.4706L88.7712 66.4707L88.7707 72.3618Z" fill="#FFB8B8"/>
<path d="M85.7299 71.9253H89.1509V73.7799H83.576C83.576 73.5363 83.6317 73.2952 83.74 73.0702C83.8482 72.8452 84.0069 72.6407 84.2069 72.4685C84.4069 72.2963 84.6443 72.1597 84.9057 72.0665C85.167 71.9733 85.4471 71.9253 85.7299 71.9253Z" fill="#2F2E41"/>
<path d="M97.0517 71.2199L95.3438 71.6328L92.6819 66.1574L95.2025 65.5481L97.0517 71.2199Z" fill="#FFB8B8"/>
<path d="M93.987 71.5074L97.2807 70.7113L97.8628 72.4969L92.4954 73.7942C92.419 73.5598 92.3969 73.3146 92.4305 73.0728C92.4641 72.831 92.5527 72.5972 92.6912 72.3848C92.8297 72.1725 93.0154 71.9857 93.2377 71.8352C93.4601 71.6846 93.7147 71.5732 93.987 71.5074Z" fill="#2F2E41"/>
<path d="M101.831 62.1791L94.9445 55.1813L99.1232 50.8156C99.1845 50.7516 99.2615 50.7001 99.3487 50.6648C99.4359 50.6295 99.5312 50.6113 99.6275 50.6116C99.7239 50.6118 99.819 50.6305 99.9059 50.6662C99.9929 50.7019 100.07 50.7538 100.13 50.8182L106.453 57.4998L101.831 62.1791Z" fill="#545AD8"/>
<path d="M95.2224 55.2335C95.3239 55.0762 95.4498 54.9315 95.5965 54.8033L99.5851 51.3217C99.7414 51.1845 99.952 51.1031 100.175 51.0937C100.631 51.0751 101.378 51.1148 101.586 51.5453L96.2014 55.3389L95.2224 55.2335Z" fill="#F2F2F2"/>
<path d="M102.07 63.6598C101.763 63.6519 101.465 63.5705 101.208 63.4247L101.189 63.4078L94.8821 55.1022L95.9287 55.0151L101.538 51.2481C101.609 51.2005 101.69 51.1661 101.777 51.147C101.864 51.1278 101.955 51.1244 102.043 51.1369C102.132 51.1494 102.217 51.1775 102.292 51.2195C102.367 51.2615 102.432 51.3165 102.481 51.381L108.613 59.3713C108.707 59.4947 108.741 59.645 108.707 59.7897C108.674 59.9345 108.575 60.0621 108.434 60.145L102.5 63.5897C102.364 63.6365 102.218 63.6603 102.07 63.6598Z" fill="#545AD8"/>
<path d="M99.8396 57.9783C99.7803 57.9784 99.7218 57.9659 99.6694 57.9419C99.617 57.918 99.5722 57.8833 99.539 57.8409L98.8145 56.9142C98.761 56.8457 98.7413 56.7617 98.7597 56.6806C98.7781 56.5995 98.8331 56.5281 98.9125 56.4819L102.63 54.3272C102.709 54.2812 102.807 54.2643 102.901 54.2801C102.995 54.2959 103.078 54.3432 103.132 54.4116L103.856 55.3383C103.91 55.4068 103.929 55.4909 103.911 55.5719C103.893 55.653 103.838 55.7244 103.758 55.7706L100.041 57.9253C99.9816 57.9599 99.9114 57.9783 99.8396 57.9783Z" fill="#3F3D56"/>
<path d="M85.8725 71.4708C85.6746 71.4702 85.4842 71.4059 85.3386 71.2905C85.193 71.1752 85.1027 71.0171 85.0855 70.8474C84.7699 67.7597 83.1863 52.1979 83.0125 49.0552C82.8194 45.5633 86.1945 40.0392 86.2286 39.9839L86.252 39.9459L87.9202 40.1254V40.2924L89.508 40.4532L92.5809 40.7093L93.4606 49.9679L93.8496 56.2469L97.5043 69.0715C97.5457 69.2136 97.5205 69.3639 97.4343 69.4901C97.348 69.6163 97.2076 69.7082 97.0433 69.746L93.8626 70.4929C93.6972 70.5311 93.521 70.5119 93.3719 70.4395C93.2228 70.367 93.1126 70.2471 93.065 70.1055L90.0704 61.0477C90.0559 61.0039 90.0233 60.9661 89.9787 60.9416C89.9341 60.917 89.8807 60.9073 89.8284 60.9143C89.776 60.9213 89.7285 60.9445 89.6947 60.9796C89.6609 61.0146 89.6431 61.0591 89.6447 61.1047L89.9615 69.9368C89.9631 70.0274 89.9431 70.1174 89.9029 70.2013C89.8627 70.2851 89.803 70.3609 89.7275 70.4241C88.9984 71.0137 87.072 71.3284 85.9886 71.4636C85.9501 71.4684 85.9113 71.4708 85.8725 71.4708Z" fill="#2F2E41"/>
<path d="M95.4299 32.564C94.9252 32.111 91.5996 32.7335 90.8612 33.401L85.8065 40.5152L94.1662 41.8544L96.0131 32.8151L95.4299 32.564Z" fill="#545AD8"/>
<path d="M93.2387 50.6389C93.0587 50.639 92.8798 50.6133 92.7095 50.563C92.2239 50.4195 91.6286 50.2694 90.9404 50.1171C87.926 49.4497 86.8618 47.3128 87.7772 43.766L87.8003 43.676C88.66 40.3115 90.2802 37.1255 92.5687 34.2998L92.9232 33.8613C93.3511 33.3323 93.9502 32.9233 94.6459 32.6851C95.3416 32.4468 96.1033 32.3899 96.8362 32.5214C98.1926 32.7623 98.9208 33.1113 99.0008 33.5589C99.1577 34.4371 96.1282 45.0537 94.8184 49.5775C94.7306 49.8809 94.5273 50.1503 94.241 50.3427C93.9547 50.535 93.6019 50.6393 93.2387 50.6389L93.2387 50.6389Z" fill="#2F2E41"/>
<path d="M82.8545 49.2759C82.7757 49.2759 82.6974 49.2653 82.6223 49.2447L81.6452 48.9756C81.5442 48.9478 81.4511 48.9021 81.3718 48.8415C81.2925 48.7808 81.2287 48.7066 81.1846 48.6236C81.1404 48.5406 81.1169 48.4505 81.1155 48.3592C81.1141 48.2679 81.1348 48.1774 81.1764 48.0933L86.3607 37.6158C87.354 35.6171 89.0908 33.9593 91.2979 32.9033H91.2979C91.3299 32.8881 91.3652 32.8788 91.4016 32.8759C91.438 32.8729 91.4747 32.8765 91.5094 32.8863C91.5413 32.895 91.5707 32.9094 91.5957 32.9286C91.6208 32.9477 91.6409 32.9711 91.6548 32.9974C92.2645 34.1523 88.9459 39.6179 86.2793 44.0096C84.9139 46.2583 83.7347 48.2005 83.6005 48.7543C83.5646 48.9018 83.4709 49.0342 83.3351 49.1292C83.1992 49.2242 83.0295 49.276 82.8545 49.2759Z" fill="#2F2E41"/>
<path d="M98.8937 51.6633C99.0758 51.5463 99.2259 51.3963 99.3334 51.224C99.4409 51.0516 99.5032 50.861 99.5159 50.6657C99.5286 50.4703 99.4914 50.275 99.407 50.0933C99.3225 49.9117 99.1928 49.7482 99.027 49.6144L98.9858 37.0588L95.6522 37.5404L96.7426 49.737C96.5 49.9917 96.3743 50.3141 96.3894 50.6433C96.4044 50.9724 96.5592 51.2854 96.8244 51.5228C97.0895 51.7603 97.4466 51.9057 97.828 51.9316C98.2094 51.9575 98.5886 51.8621 98.8937 51.6633Z" fill="#FFB8B8"/>
<path d="M96.1794 40.1739C96.0142 40.1739 95.8552 40.1198 95.7346 40.0225C95.614 39.9253 95.5409 39.7922 95.53 39.6503L95.1422 34.5842C95.1056 34.0967 95.295 33.6166 95.6688 33.2493C96.0427 32.8819 96.5706 32.6572 97.1366 32.6245C97.4272 32.608 97.7187 32.6428 97.9932 32.7267C98.2676 32.8106 98.5193 32.9418 98.7328 33.1124C98.9463 33.283 99.1171 33.4893 99.2348 33.7187C99.3524 33.9481 99.4144 34.1958 99.417 34.4466L99.4697 39.5817C99.4709 39.73 99.4039 39.8727 99.2834 39.9787C99.1629 40.0846 98.9985 40.1452 98.8263 40.1473L96.1873 40.1739L96.1794 40.1739Z" fill="#2F2E41"/>
<path d="M93.7943 31.3413C95.7569 31.3413 97.3479 29.9713 97.3479 28.2815C97.3479 26.5916 95.7569 25.2217 93.7943 25.2217C91.8317 25.2217 90.2406 26.5916 90.2406 28.2815C90.2406 29.9713 91.8317 31.3413 93.7943 31.3413Z" fill="#FFB8B8"/>
<path d="M96.749 30.4225C97.014 29.6962 97.2574 28.8399 96.7329 28.2271C96.3549 27.7855 95.6764 27.6146 95.0399 27.5901C94.4035 27.5656 93.7653 27.6585 93.1302 27.615C92.4952 27.5716 91.824 27.3558 91.5014 26.8828C91.0831 26.2694 91.4374 25.4247 92.1099 25.0116C92.7824 24.5986 93.6708 24.5409 94.4893 24.6371C95.525 24.743 96.4986 25.118 97.2806 25.7122C98.0414 26.3168 98.5373 27.1882 98.5152 28.0795C98.4931 28.9707 97.9126 29.8582 96.9874 30.2583" fill="#2F2E41"/>
<path d="M95.8629 23.7366C95.0122 23.511 94.6198 22.5426 95.0002 21.8496C95.3807 21.1567 96.3532 20.7938 97.2362 20.8904C98.1193 20.9869 98.8975 21.4747 99.4342 22.0862C99.9709 22.6976 100.295 23.4265 100.564 24.1569C100.834 24.8873 101.059 25.6335 101.427 26.3312C102.012 27.4031 102.914 28.3237 104.043 29.0003C105.172 29.677 106.488 30.0859 107.859 30.186C108.456 30.2232 109.076 30.1965 109.62 29.9815C110.165 29.7665 110.621 29.333 110.682 28.82C110.992 30.6424 109.761 32.5793 107.811 33.3366C105.861 34.0939 103.36 33.6067 101.978 32.2005C100.628 30.8262 100.419 28.886 100.451 27.0862C100.46 26.5927 100.482 26.0898 100.323 25.6154C100.165 25.1411 99.7901 24.69 99.2442 24.5393C98.8037 24.4178 98.3267 24.5054 97.8751 24.5916C97.4236 24.6778 96.9441 24.7607 96.5069 24.6308C96.0697 24.5009 95.7177 24.0728 95.8938 23.7046" fill="#2F2E41"/>
<path d="M109.922 74H71.7251C71.6867 74 71.6499 73.9869 71.6228 73.9635C71.5956 73.9402 71.5804 73.9085 71.5804 73.8754C71.5804 73.8424 71.5956 73.8107 71.6228 73.7873C71.6499 73.764 71.6867 73.7509 71.7251 73.7509H109.922C109.961 73.7509 109.997 73.764 110.025 73.7873C110.052 73.8107 110.067 73.8424 110.067 73.8754C110.067 73.9085 110.052 73.9402 110.025 73.9635C109.997 73.9869 109.961 74 109.922 74Z" fill="#CCCCCC"/>
</g>
<defs>
<filter id="filter0_d_237_772" x="0" y="0" width="114.73" height="82" filterUnits="userSpaceOnUse" color-interpolation-filters="sRGB">
<feFlood flood-opacity="0" result="BackgroundImageFix"/>
<feColorMatrix in="SourceAlpha" type="matrix" values="0 0 0 0 0 0 0 0 0 0 0 0 0 0 0 0 0 0 127 0" result="hardAlpha"/>
<feOffset dy="4"/>
<feGaussianBlur stdDeviation="2"/>
<feComposite in2="hardAlpha" operator="out"/>
<feColorMatrix type="matrix" values="0 0 0 0 0 0 0 0 0 0 0 0 0 0 0 0 0 0 0.45 0"/>
<feBlend mode="normal" in2="BackgroundImageFix" result="effect1_dropShadow_237_772"/>
<feBlend mode="normal" in="SourceGraphic" in2="effect1_dropShadow_237_772" result="shape"/>
</filter>
<clipPath id="clip0_237_772">
<rect width="106.73" height="74" fill="white" transform="translate(4)"/>
</clipPath>
</defs>
</svg>
