<svg width="107" height="74" viewBox="0 0 107 74" fill="none" xmlns="http://www.w3.org/2000/svg">
<path d="M100.003 22.8944C99.7984 10.2057 91.7226 0 81.7892 0C75.8196 0 70.5208 3.68574 67.1979 9.38107L71.1047 17.2383L65.7055 12.3953C64.3437 15.6723 63.5708 19.4135 63.5708 23.387C63.5597 26.3988 64.0224 29.3997 64.9479 32.3188L75.4178 30.9658L66.0479 35.1656C69.1005 41.8737 74.6798 46.4553 81.1108 46.7576L79.8714 73.7842L83.7069 73.894L82.8871 46.7304C92.0448 46.0314 99.3805 36.6497 99.9682 24.9087L93.6397 22.0722L100.003 22.8944Z" fill="#F0F0F0"/>
<path d="M42.1586 57.5497C42.0465 57.4571 41.9603 57.3465 41.9057 57.2251C41.851 57.1038 41.8292 56.9745 41.8417 56.8459C41.8542 56.7173 41.9007 56.5923 41.9781 56.4792C42.0556 56.3661 42.1621 56.2675 42.2907 56.1899C42.3456 56.1555 42.4037 56.1247 42.4646 56.0976L41.5002 52.7668L43.7431 53.4124L44.315 56.4764C44.4494 56.668 44.4926 56.8923 44.4364 57.1075C44.3803 57.3227 44.2286 57.5143 44.0096 57.6467C43.7397 57.8149 43.4023 57.8979 43.0611 57.88C42.72 57.8621 42.3989 57.7446 42.1586 57.5497Z" fill="#FFB8B8"/>
<path d="M41.904 54.9509L41.8919 54.9182C40.6795 51.6239 39.4262 48.2184 37.896 44.5104L37.886 44.4861L37.9197 44.4717C38.7726 44.1061 40.0545 44.1304 40.9015 44.5282C41.6851 44.8963 42.0813 45.6083 41.8671 46.2617L42.9831 50.5363C43.4368 51.9336 43.9064 53.3799 44.3552 54.806L44.3679 54.8464L44.2984 54.8497C43.4813 54.8878 42.6371 54.9273 41.9607 54.9491L41.904 54.9509Z" fill="#CCCCCC"/>
<path d="M31.5998 72.6815H30.0095L29.2526 68.1753H31.5998V72.6815Z" fill="#FFB8B8"/>
<path d="M32.0054 73.8137H26.8774V73.7661C26.8774 72.9576 27.7729 72.2998 28.8735 72.2998H32.0054V73.8137Z" fill="#2F2E41"/>
<path d="M46.5857 71.7176L45.0704 72.0723L42.4869 67.9477L44.7233 67.4241L46.5857 71.7176Z" fill="#FFB8B8"/>
<path d="M42.5544 73.8498L42.5347 73.8044C42.2006 73.034 42.7819 72.2077 43.8305 71.9622L46.8146 71.2637L47.4403 72.7061L42.5544 73.8498Z" fill="#2F2E41"/>
<path d="M32.5078 71.231L32.444 71.2264C31.0604 71.1266 29.6297 71.0236 28.2776 71.0118L28.2041 71.0112L28.2141 70.9577C28.5345 69.2533 28.6703 67.4813 28.8016 65.7677C28.9313 64.0757 29.0654 62.3263 29.3777 60.6646C29.5098 60.2196 29.6386 59.78 29.7669 59.3419C30.8288 55.7167 31.8317 52.2925 33.902 48.903L33.9216 48.8708L33.969 48.875C35.9115 49.0477 37.778 49.5684 39.2247 50.341L39.2527 50.3559L39.2513 50.3814C39.2115 50.903 39.2068 51.4259 39.2373 51.9478C39.8882 52.5979 40.3241 53.3691 40.5044 54.19C40.6848 55.0109 40.6038 55.855 40.2691 56.6442C40.8387 58.0426 41.4276 59.4882 42.0285 60.9142C43.4876 63.8529 44.9975 66.894 46.5453 69.9767L46.5707 70.0271L46.4993 70.0394C45.3857 70.2315 44.2369 70.4296 43.1036 70.5065L43.0609 70.5093L43.0405 70.4815C40.1664 66.5588 37.8147 62.4049 36.0241 58.0882C35.6374 58.9546 35.0802 59.7366 34.5405 60.4941C34.0264 61.1797 33.5721 61.893 33.1807 62.6288C32.9418 64.0698 32.8784 65.631 32.8172 67.1407C32.7593 68.5682 32.7046 69.9163 32.5148 71.184L32.5078 71.231Z" fill="#2F2E41"/>
<path d="M23.4112 49.9124C23.6009 49.6855 23.8888 49.523 24.2192 49.4562C24.5496 49.3895 24.8992 49.4232 25.2004 49.5508C25.2621 49.5769 25.3211 49.6069 25.3768 49.6405L29.3306 47.8628L29.2493 49.6313L25.5072 51.0483C25.2959 51.2076 25.0281 51.3104 24.7407 51.3423C24.4534 51.3743 24.1608 51.3339 23.9033 51.2268C23.7572 51.1716 23.6272 51.0925 23.5218 50.9944C23.4164 50.8963 23.3379 50.7816 23.2915 50.6576C23.245 50.5336 23.2317 50.4031 23.2523 50.2748C23.273 50.1464 23.3271 50.0229 23.4112 49.9124Z" fill="#FFB8B8"/>
<path d="M22.6308 39.1721H21.7205V44.616H22.6308V39.1721Z" fill="#545AD8"/>
<path d="M106.592 73.9999H0.137894C0.101322 73.9999 0.0662483 73.9882 0.0403881 73.9675C0.014528 73.9468 0 73.9187 0 73.8894C0 73.86 0.014528 73.8319 0.0403881 73.8112C0.0662483 73.7905 0.101322 73.7788 0.137894 73.7788H106.592C106.629 73.7788 106.664 73.7905 106.69 73.8112C106.715 73.8319 106.73 73.86 106.73 73.8894C106.73 73.9187 106.715 73.9468 106.69 73.9675C106.664 73.9882 106.629 73.9999 106.592 73.9999Z" fill="#CACACA"/>
<path d="M25.8985 41.5899L25.2318 42.0876L22.1765 39.4522L19.1201 42.0876L18.4534 41.5899L22.1765 38.3809L25.8985 41.5899Z" fill="#545AD8"/>
<path d="M21.9235 47.3522C20.4831 47.3522 19.0751 47.0098 17.8775 46.3684C16.6799 45.727 15.7465 44.8153 15.1953 43.7487C14.6441 42.6821 14.4999 41.5084 14.7809 40.376C15.0619 39.2437 15.7555 38.2036 16.774 37.3872C17.7925 36.5709 19.0901 36.0149 20.5027 35.7897C21.9154 35.5644 23.3797 35.68 24.7104 36.1219C26.0411 36.5637 27.1784 37.3119 27.9786 38.2718C28.7788 39.2317 29.2059 40.3603 29.2059 41.5148C29.2038 43.0625 28.4358 44.5462 27.0705 45.6405C25.7053 46.7349 23.8542 47.3504 21.9235 47.3522ZM21.9235 36.4072C20.6632 36.4072 19.4312 36.7067 18.3833 37.268C17.3354 37.8292 16.5186 38.6269 16.0364 39.5602C15.5541 40.4935 15.4279 41.5205 15.6737 42.5113C15.9196 43.5021 16.5265 44.4122 17.4177 45.1265C18.3088 45.8408 19.4442 46.3273 20.6803 46.5244C21.9164 46.7215 23.1976 46.6203 24.362 46.2337C25.5263 45.8471 26.5215 45.1925 27.2217 44.3525C27.9219 43.5126 28.2956 42.5251 28.2956 41.5148C28.2937 40.1607 27.6218 38.8624 26.4272 37.9049C25.2326 36.9473 23.6129 36.4087 21.9235 36.4072Z" fill="#545AD8"/>
<path d="M29.8392 28.0671H29.3373V31.0686H29.8392V28.0671Z" fill="#E4E4E4"/>
<path d="M29.4493 32.5772C28.6552 32.5772 27.8789 32.3885 27.2186 32.0348C26.5583 31.6812 26.0436 31.1785 25.7397 30.5904C25.4358 30.0023 25.3563 29.3552 25.5112 28.7309C25.6662 28.1066 26.0486 27.5331 26.6101 27.083C27.1716 26.6329 27.8871 26.3264 28.666 26.2022C29.4448 26.078 30.2522 26.1418 30.9858 26.3854C31.7195 26.629 32.3466 27.0415 32.7878 27.5707C33.229 28.1 33.4645 28.7223 33.4645 29.3588C33.4633 30.2121 33.0399 31.0301 32.2871 31.6335C31.5344 32.2369 30.5138 32.5763 29.4493 32.5772ZM29.4493 26.5427C28.7544 26.5427 28.0752 26.7079 27.4974 27.0173C26.9196 27.3267 26.4693 27.7666 26.2034 28.2811C25.9375 28.7957 25.8679 29.3619 26.0035 29.9082C26.1391 30.4545 26.4737 30.9563 26.965 31.3501C27.4564 31.7439 28.0824 32.0121 28.7639 32.1208C29.4454 32.2295 30.1518 32.1737 30.7938 31.9606C31.4357 31.7474 31.9844 31.3865 32.3705 30.9234C32.7565 30.4603 32.9626 29.9158 32.9626 29.3588C32.9615 28.6122 32.591 27.8964 31.9324 27.3684C31.2738 26.8405 30.3807 26.5435 29.4493 26.5427Z" fill="#E4E4E4"/>
<path d="M38.5364 41.4915C40.296 41.4915 41.7225 40.4436 41.7225 39.151C41.7225 37.8584 40.296 36.8105 38.5364 36.8105C36.7768 36.8105 35.3503 37.8584 35.3503 39.151C35.3503 40.4436 36.7768 41.4915 38.5364 41.4915Z" fill="#FFB8B8"/>
<path d="M37.4487 36.4116C38.8297 36.193 40.3573 36.4009 41.4418 37.0854C42.5264 37.7699 43.0772 38.954 42.6316 39.9695C42.186 40.9851 40.6734 41.6996 39.3056 41.4373C39.6974 40.6262 39.2565 39.6303 38.2987 39.163C37.1629 38.6089 36.8502 37.2861 37.4487 36.4116Z" fill="#2F2E41"/>
<path d="M39.9668 38.7171C39.9849 37.7731 39.4471 36.8382 38.6156 36.3682C38.2136 36.1391 37.7308 36.019 37.2377 36.0254C36.7445 36.0318 36.2668 36.1644 35.8743 36.4037C35.0556 36.8952 34.543 37.8438 34.5864 38.787C36.4208 38.7908 38.2551 38.7946 39.9668 38.7171Z" fill="#2F2E41"/>
<path d="M39.1254 50.4426L39.0748 50.4258C37.3131 49.8353 35.5856 49.3822 33.967 48.9689L33.9174 48.961L33.9172 48.8553L33.9494 48.8635C33.9562 48.8525 33.9639 48.8401 33.9715 48.8277C33.9936 48.7917 34.0087 48.7673 34.0215 48.7511L34.0212 48.7509C34.1561 48.5489 34.2634 48.3537 34.3671 48.165C34.4742 47.9702 34.5847 47.769 34.7274 47.5562C34.3859 47.3143 34.1485 46.9922 34.0489 46.6358C33.9493 46.2794 33.9926 45.9069 34.1727 45.5714C34.5302 44.9489 35.4419 44.464 36.3998 44.3836C36.7508 43.6738 37.5329 42.1823 37.5329 42.1823C37.5329 42.1823 39.1775 42.1491 39.8389 42.0875L39.85 42.0864L39.861 42.0882C41.3049 42.3206 42.5103 43.3243 42.7924 44.529C43.0305 45.5458 42.6689 46.7088 41.7744 47.8038C41.3126 48.3422 40.8051 48.8545 40.2554 49.337C39.8525 49.7071 39.472 50.0566 39.1559 50.4086L39.1254 50.4426Z" fill="#CCCCCC"/>
<path d="M42.1633 37.3358C41.1966 37.2298 40.4376 36.5038 40.5475 35.7903C40.6226 35.3023 41.0961 34.8755 41.6996 34.6721C40.92 34.7975 40.249 35.2965 40.1583 35.8856C40.0484 36.5991 40.8074 37.3251 41.7742 37.4311C42.1333 37.4727 42.4998 37.4351 42.8342 37.3221C42.6131 37.3562 42.3864 37.3608 42.1633 37.3358Z" fill="#2F2E41"/>
<path d="M26.6619 48.87L26.6999 48.8508C30.5242 46.9134 34.4776 44.9106 38.7269 42.6154L38.7548 42.6003L38.7846 42.6189C39.538 43.0878 39.9338 43.9838 39.7054 44.703C39.4941 45.3684 38.7123 45.88 37.8022 45.9494L32.6876 48.1466C31.0454 48.9264 29.3455 49.7335 27.6646 50.5195L27.617 50.5418L27.5897 50.4947C27.2684 49.9415 26.9364 49.3699 26.6831 48.9087L26.6619 48.87Z" fill="#CCCCCC"/>
<path d="M42.3142 37.7985C41.3475 37.6925 40.5885 36.9666 40.6983 36.2531C40.8082 35.5396 41.7689 34.9566 42.7434 35.0119C43.718 35.0673 44.5452 35.7518 44.5045 36.4692C44.4638 37.1866 43.5486 37.9339 42.3142 37.7985Z" fill="#2F2E41"/>
<path d="M29.4493 32.5772C28.6552 32.5772 27.8789 32.3885 27.2186 32.0348C26.5583 31.6812 26.0436 31.1785 25.7397 30.5904C25.4358 30.0023 25.3563 29.3552 25.5112 28.7309C25.6662 28.1066 26.0486 27.5331 26.6101 27.083C27.1716 26.6329 27.8871 26.3264 28.666 26.2022C29.4448 26.078 30.2522 26.1418 30.9858 26.3854C31.7195 26.629 32.3466 27.0415 32.7878 27.5707C33.229 28.1 33.4645 28.7223 33.4645 29.3588C33.4633 30.2121 33.0399 31.0301 32.2871 31.6335C31.5344 32.2369 30.5138 32.5763 29.4493 32.5772ZM29.4493 26.5427C28.7544 26.5427 28.0752 26.7079 27.4974 27.0173C26.9196 27.3267 26.4693 27.7666 26.2034 28.2811C25.9375 28.7957 25.8679 29.3619 26.0035 29.9082C26.1391 30.4545 26.4737 30.9563 26.965 31.3501C27.4564 31.7439 28.0824 32.0121 28.7639 32.1208C29.4454 32.2295 30.1518 32.1737 30.7938 31.9606C31.4357 31.7474 31.9844 31.3865 32.3705 30.9234C32.7565 30.4603 32.9626 29.9158 32.9626 29.3588C32.9615 28.6122 32.591 27.8964 31.9324 27.3684C31.2738 26.8405 30.3807 26.5435 29.4493 26.5427Z" fill="#E4E4E4"/>
<path d="M29.8392 28.0671H29.3373V31.0686H29.8392V28.0671Z" fill="#E4E4E4"/>
<path d="M29.8392 28.0671H29.3373V31.0686H29.8392V28.0671Z" fill="#E4E4E4"/>
<path d="M29.4493 32.5772C28.6552 32.5772 27.8789 32.3885 27.2186 32.0348C26.5583 31.6812 26.0436 31.1785 25.7397 30.5904C25.4358 30.0023 25.3563 29.3552 25.5112 28.7309C25.6662 28.1066 26.0486 27.5331 26.6101 27.083C27.1716 26.6329 27.8871 26.3264 28.666 26.2022C29.4448 26.078 30.2522 26.1418 30.9858 26.3854C31.7195 26.629 32.3466 27.0415 32.7878 27.5707C33.229 28.1 33.4645 28.7223 33.4645 29.3588C33.4633 30.2121 33.0399 31.0301 32.2871 31.6335C31.5344 32.2369 30.5138 32.5763 29.4493 32.5772ZM29.4493 26.5427C28.7544 26.5427 28.0752 26.7079 27.4974 27.0173C26.9196 27.3267 26.4693 27.7666 26.2034 28.2811C25.9375 28.7957 25.8679 29.3619 26.0035 29.9082C26.1391 30.4545 26.4737 30.9563 26.965 31.3501C27.4564 31.7439 28.0824 32.0121 28.7639 32.1208C29.4454 32.2295 30.1518 32.1737 30.7938 31.9606C31.4357 31.7474 31.9844 31.3865 32.3705 30.9234C32.7565 30.4603 32.9626 29.9158 32.9626 29.3588C32.9615 28.6122 32.591 27.8964 31.9324 27.3684C31.2738 26.8405 30.3807 26.5435 29.4493 26.5427Z" fill="#E4E4E4"/>
</svg>
