<svg width="115" height="82" viewBox="0 0 115 82" fill="none" xmlns="http://www.w3.org/2000/svg">
<g clip-path="url(#clip0_237_893)" filter="url(#filter0_d_237_893)">
<path d="M15.1817 24.1147C14.858 24.1133 14.543 23.9981 14.2825 23.7857L12.1155 22.0465C11.9357 21.9014 11.7188 21.8232 11.4962 21.8232C11.2735 21.8232 11.0567 21.9014 10.8769 22.0465L8.70983 23.7857C8.44848 23.9955 8.13374 24.1085 7.8107 24.1085C7.48766 24.1085 7.17291 23.9955 6.91155 23.7858C6.65019 23.5761 6.45565 23.2803 6.35579 22.9409C6.25593 22.6015 6.2559 22.2359 6.35568 21.8965L7.18343 19.0822C7.25263 18.8485 7.25286 18.5964 7.18408 18.3625C7.11529 18.1286 6.98105 17.9248 6.8007 17.7805L4.63368 16.0412C4.37234 15.8315 4.17783 15.5357 4.07802 15.1962C3.97821 14.8568 3.97823 14.4912 4.07806 14.1518C4.17789 13.8124 4.37242 13.5166 4.63377 13.3068C4.89512 13.0971 5.20987 12.9841 5.53292 12.9841H8.21145C8.43406 12.9845 8.65104 12.9069 8.83114 12.7623C9.01123 12.6178 9.14513 12.4138 9.21355 12.1798L10.0413 9.36555C10.1411 9.02609 10.3356 8.73025 10.597 8.52044C10.8584 8.31063 11.1731 8.19763 11.4962 8.19763C11.8193 8.19763 12.1341 8.31063 12.3954 8.52044C12.6568 8.73025 12.8513 9.02609 12.9511 9.36555L13.7788 12.1798C13.8472 12.4138 13.9811 12.6178 14.1613 12.7623C14.3414 12.9069 14.5584 12.9845 14.781 12.9841H17.4595C17.7826 12.9841 18.0973 13.0971 18.3587 13.3068C18.62 13.5166 18.8145 13.8124 18.9144 14.1518C19.0142 14.4912 19.0142 14.8568 18.9144 15.1962C18.8146 15.5357 18.6201 15.8315 18.3588 16.0412L16.1917 17.7805C16.0114 17.9247 15.8771 18.1285 15.8083 18.3625C15.7395 18.5964 15.7397 18.8484 15.8089 19.0822L16.6366 21.8965C16.7401 22.2356 16.7419 22.6024 16.6418 22.9427C16.5417 23.283 16.345 23.5787 16.0809 23.7857C15.8204 23.998 15.5055 24.1132 15.1817 24.1147Z" fill="#545AD8"/>
<path d="M37.1412 24.1147C36.8175 24.1132 36.5026 23.998 36.2421 23.7857L34.075 22.0465C33.8951 21.9018 33.6782 21.8238 33.4557 21.8238C33.2331 21.8238 33.0162 21.9018 32.8363 22.0465L30.6693 23.7857C30.4079 23.9955 30.0932 24.1085 29.7702 24.1085C29.4471 24.1085 29.1324 23.9956 28.871 23.7858C28.6097 23.5761 28.4151 23.2803 28.3153 22.9409C28.2154 22.6015 28.2154 22.2359 28.3152 21.8965L29.1429 19.0822C29.2121 18.8485 29.2123 18.5964 29.1435 18.3625C29.0747 18.1286 28.9405 17.9248 28.7601 17.7805L26.5931 16.0412C26.3318 15.8315 26.1373 15.5357 26.0375 15.1962C25.9377 14.8568 25.9377 14.4912 26.0375 14.1518C26.1373 13.8124 26.3319 13.5166 26.5932 13.3068C26.8546 13.0971 27.1693 12.9841 27.4924 12.9841H30.1709C30.3935 12.9845 30.6105 12.9069 30.7906 12.7623C30.9707 12.6178 31.1046 12.4138 31.173 12.1798L32.0008 9.36555C32.1006 9.02609 32.2951 8.73025 32.5564 8.52044C32.8178 8.31063 33.1326 8.19763 33.4557 8.19763C33.7788 8.19763 34.0935 8.31063 34.3549 8.52044C34.6163 8.73025 34.8108 9.02609 34.9106 9.36555L35.7383 12.1798C35.8068 12.4138 35.9407 12.6178 36.1208 12.7623C36.3009 12.9069 36.5178 12.9845 36.7404 12.9841H39.419C39.742 12.9841 40.0568 13.0971 40.3181 13.3068C40.5795 13.5166 40.774 13.8124 40.8738 14.1518C40.9736 14.4912 40.9737 14.8568 40.8739 15.1962C40.774 15.5357 40.5795 15.8315 40.3182 16.0412L38.1512 17.7805C37.9708 17.9248 37.8366 18.1286 37.7678 18.3625C37.699 18.5964 37.6992 18.8485 37.7684 19.0822L38.5961 21.8965C38.6996 22.2355 38.7014 22.6024 38.6013 22.9427C38.5012 23.283 38.3045 23.5786 38.0404 23.7857C37.7799 23.998 37.4649 24.1132 37.1412 24.1147Z" fill="#545AD8"/>
<path d="M51.5386 24.2126C51.1831 24.211 50.8372 24.0846 50.551 23.8516C50.2608 23.624 50.0448 23.2993 49.9348 22.9254C49.8248 22.5515 49.8268 22.1484 49.9404 21.7759L50.7683 18.9617C50.8275 18.7614 50.8277 18.5454 50.7687 18.345C50.7098 18.1445 50.5947 17.9699 50.4402 17.8463L48.2731 16.1069C47.986 15.8765 47.7723 15.5516 47.6627 15.1787C47.553 14.8059 47.553 14.4043 47.6627 14.0314C47.7723 13.6586 47.986 13.3337 48.2731 13.1033C48.5602 12.8728 48.906 12.7487 49.2608 12.7488H51.9394C52.1302 12.7491 52.3162 12.6826 52.4705 12.5587C52.6249 12.4348 52.7396 12.2599 52.7982 12.0593L53.6261 9.24514C53.7357 8.87231 53.9494 8.5474 54.2365 8.31699C54.5236 8.08657 54.8693 7.96246 55.2242 7.96246C55.579 7.96246 55.9248 8.08657 56.2119 8.31699C56.4989 8.5474 56.7126 8.87231 56.8223 9.24514L57.65 12.0593C57.7086 12.2599 57.8234 12.4348 57.9777 12.5587C58.1321 12.6826 58.3181 12.7491 58.5089 12.7488H61.1875C61.5423 12.7488 61.888 12.8729 62.1751 13.1033C62.4622 13.3337 62.6759 13.6586 62.7855 14.0315C62.8952 14.4043 62.8952 14.8059 62.7856 15.1787C62.6759 15.5515 62.4623 15.8765 62.1752 16.1069L60.0082 17.8463C59.8536 17.9699 59.7385 18.1445 59.6795 18.3449C59.6205 18.5454 59.6207 18.7614 59.68 18.9617L60.5078 21.7759C60.6174 22.1488 60.6174 22.5504 60.5077 22.9232C60.3981 23.296 60.1844 23.6209 59.8973 23.8514C59.6102 24.0818 59.2644 24.2059 58.9096 24.2059C58.5547 24.2059 58.209 24.0818 57.9219 23.8514L55.755 22.1121C55.6008 21.9879 55.4149 21.921 55.2241 21.921C55.0333 21.921 54.8474 21.9879 54.6932 22.1121L52.5262 23.8514C52.24 24.0845 51.8941 24.211 51.5386 24.2126ZM55.2241 21.0619C55.5791 21.062 55.9249 21.1865 56.2117 21.4175L58.3787 23.1567C58.533 23.2806 58.7188 23.3473 58.9096 23.3474C59.1003 23.3474 59.2862 23.2807 59.4405 23.1569C59.5948 23.033 59.7097 22.8584 59.7686 22.658C59.8275 22.4576 59.8275 22.2417 59.7685 22.0413L58.9408 19.2271C58.8305 18.8543 58.8302 18.4525 58.9399 18.0795C59.0496 17.7065 59.2637 17.3816 59.5514 17.1517L61.7183 15.4122C61.8726 15.2884 61.9874 15.1137 62.0464 14.9134C62.1053 14.713 62.1053 14.4972 62.0464 14.2968C61.9874 14.0964 61.8726 13.9218 61.7183 13.7979C61.564 13.6741 61.3782 13.6074 61.1875 13.6074H58.5089C58.1539 13.6081 57.8078 13.4843 57.5206 13.2538C57.2334 13.0232 57.0199 12.6979 56.9108 12.3247L56.083 9.51052C56.0241 9.31013 55.9093 9.13549 55.755 9.01164C55.6007 8.88779 55.4148 8.82108 55.2241 8.82108C55.0334 8.82108 54.8475 8.88779 54.6932 9.01164C54.5389 9.13549 54.4241 9.31013 54.3652 9.51052L53.5374 12.3247C53.4283 12.6979 53.2148 13.0232 52.9276 13.2538C52.6404 13.4843 52.2944 13.6081 51.9394 13.6074H49.2608C49.0701 13.6074 48.8843 13.674 48.73 13.7979C48.5757 13.9217 48.4608 14.0963 48.4019 14.2967C48.3429 14.4971 48.3429 14.713 48.4018 14.9133C48.4608 15.1137 48.5756 15.2884 48.7299 15.4122L50.897 17.1517C51.1846 17.3816 51.3987 17.7065 51.5084 18.0795C51.6181 18.4525 51.6177 18.8543 51.5074 19.2271L50.6796 22.0413C50.6206 22.2417 50.6206 22.4575 50.6796 22.6579C50.7385 22.8583 50.8534 23.0329 51.0077 23.1568C51.162 23.2806 51.3478 23.3473 51.5386 23.3473C51.7293 23.3473 51.9151 23.2805 52.0694 23.1567L54.2365 21.4175C54.5234 21.1865 54.8692 21.062 55.2241 21.0619Z" fill="#3F3D56"/>
<path d="M92.3096 28.5284L86.9859 33.5843L78.6423 41.5053L77.5145 42.5764C77.4113 42.6735 77.3265 42.7923 77.2652 42.9259C77.2039 43.0595 77.1673 43.2052 77.1574 43.3546C77.1427 43.5714 77.1843 43.7884 77.2772 43.98C77.3126 44.0523 77.355 44.1201 77.4036 44.1823L78.0085 44.9605L78.9294 46.144C78.9464 46.1649 78.9623 46.1844 78.9806 46.2043C79.1645 46.4077 79.4112 46.5269 79.6713 46.538C79.9314 46.5491 80.1857 46.4512 80.3833 46.264L89.8446 37.2831L95.1795 32.2174C95.3863 32.0201 95.5139 31.7402 95.5343 31.4391C95.5546 31.138 95.4661 30.8403 95.2881 30.6112L94.9662 30.1977L93.7633 28.6508C93.6752 28.5372 93.5677 28.4438 93.4469 28.3762C93.3261 28.3085 93.1945 28.2678 93.0594 28.2564C92.9244 28.245 92.7887 28.2632 92.66 28.3099C92.5313 28.3565 92.4123 28.4308 92.3096 28.5284V28.5284Z" fill="#545AD8"/>
<path d="M96.3668 24.2747C101.054 24.2747 104.854 20.0767 104.854 14.8982C104.854 9.71972 101.054 5.52173 96.3668 5.52173C91.6792 5.52173 87.8792 9.71972 87.8792 14.8982C87.8792 20.0767 91.6792 24.2747 96.3668 24.2747Z" fill="#545AD8"/>
<path d="M96.9905 51.3101V72.8612C96.9907 73.1631 97.0994 73.4526 97.2927 73.6661C97.4859 73.8796 97.748 73.9997 98.0213 74H100.362C100.635 73.9997 100.897 73.8796 101.091 73.6661C101.284 73.4526 101.393 73.1631 101.393 72.8612V51.3101C101.393 51.0081 101.284 50.7186 101.091 50.5051C100.897 50.2916 100.635 50.1716 100.362 50.1713H98.0213C97.748 50.1716 97.4859 50.2916 97.2927 50.5051C97.0994 50.7186 96.9907 51.0081 96.9905 51.3101Z" fill="#2F2E41"/>
<path d="M92.0441 51.3101V72.8612C92.0441 73.0108 92.0707 73.1588 92.1225 73.297C92.1743 73.4352 92.2503 73.5607 92.346 73.6665C92.4417 73.7722 92.5554 73.8561 92.6804 73.9133C92.8055 73.9706 92.9396 74 93.0749 74H95.4156C95.689 73.9997 95.951 73.8796 96.1443 73.6661C96.3375 73.4526 96.4462 73.1631 96.4465 72.8612V51.3101C96.4462 51.0081 96.3375 50.7186 96.1443 50.5051C95.951 50.2916 95.689 50.1716 95.4156 50.1713H93.0749C92.9396 50.1713 92.8055 50.2007 92.6804 50.2579C92.5554 50.3152 92.4417 50.399 92.346 50.5048C92.2503 50.6105 92.1743 50.7361 92.1225 50.8742C92.0707 51.0124 92.0441 51.1605 92.0441 51.3101Z" fill="#2F2E41"/>
<path d="M92.9944 54.2624C92.1136 54.2615 91.2443 54.0415 90.451 53.6187C89.6577 53.196 88.9608 52.5813 88.4119 51.8203C87.8631 51.0593 87.4764 50.1715 87.2805 49.2229C87.0847 48.2742 87.0847 47.289 87.2806 46.3404L89.9284 33.5176C89.9302 32.1913 90.2628 30.8912 90.8898 29.7601C91.5168 28.629 92.4138 27.7107 93.4823 27.1061C94.5508 26.5014 95.7496 26.2338 96.9468 26.3326C98.144 26.4314 99.2934 26.8929 100.269 27.6662C101.112 28.3349 101.799 29.2153 102.273 30.235C102.748 31.2547 102.996 32.3844 102.998 33.5309C103.001 33.6468 103.371 45.5718 103.525 51.0824C103.536 51.4594 103.479 51.835 103.358 52.1877C103.237 52.5403 103.053 52.8629 102.819 53.1371C102.584 53.4113 102.303 53.6316 101.991 53.7853C101.68 53.9391 101.343 54.0232 101.002 54.033L93.1833 54.2592C93.1202 54.2613 93.0571 54.2624 92.9944 54.2624Z" fill="#2F2E41"/>
<path d="M89.1993 19.0431L89.2081 18.6927C88.618 18.6745 88.0978 18.6337 87.7069 18.3182C87.5961 18.2236 87.505 18.1038 87.4398 17.9669C87.3747 17.83 87.337 17.6792 87.3293 17.5248C87.3224 17.4304 87.3353 17.3356 87.367 17.2476C87.3987 17.1597 87.4484 17.081 87.5121 17.0177C87.7716 16.7756 88.1891 16.854 88.4934 17.0081L88.7559 17.141L88.2526 13.0781L87.9384 13.1257L88.3664 16.5817C87.9529 16.4474 87.5698 16.5053 87.3073 16.7501C87.2066 16.8473 87.1275 16.9689 87.0763 17.1054C87.0252 17.2419 87.0032 17.3897 87.0123 17.5371C87.0216 17.7446 87.0718 17.9474 87.1595 18.1312C87.2471 18.315 87.3701 18.4754 87.5198 18.6012C88.0221 19.0066 88.6748 19.0268 89.1993 19.0431Z" fill="#2F2E41"/>
<path d="M91.7763 13.4237H90.0681V13.7741H91.7763V13.4237Z" fill="#2F2E41"/>
<path d="M98.5843 30.2792L98.876 38.0282L99.3312 50.1712L99.3931 51.8128C99.398 51.9625 99.4299 52.1096 99.4868 52.2456C99.5437 52.3815 99.6245 52.5036 99.7245 52.6047C99.8695 52.7518 100.049 52.8503 100.243 52.8886C100.316 52.9027 100.391 52.908 100.465 52.9043L101.393 52.8623L102.804 52.7975C102.83 52.7957 102.853 52.794 102.879 52.7905C103.137 52.7571 103.375 52.6171 103.544 52.3984C103.713 52.1798 103.801 51.8987 103.791 51.6114L103.275 37.8425L102.984 30.0777C102.972 29.7761 102.852 29.492 102.651 29.2877C102.449 29.0835 102.183 28.9757 101.91 28.988L101.417 29.0108L99.5723 29.0949C99.4369 29.1008 99.304 29.1361 99.1811 29.1989C99.0581 29.2616 98.9476 29.3506 98.8558 29.4606C98.764 29.5706 98.6928 29.6995 98.6462 29.84C98.5996 29.9805 98.5786 30.1297 98.5843 30.2792Z" fill="#545AD8"/>
<path d="M97.8722 30.9345V36.8912C97.8724 37.1879 97.9774 37.4728 98.1649 37.6852C98.3524 37.8976 98.6076 38.0207 98.876 38.0283C98.885 38.0298 98.894 38.0304 98.9031 38.03H102.709C102.77 38.0298 102.831 38.0234 102.892 38.0107C103.029 37.9843 103.159 37.927 103.275 37.8425C103.418 37.7386 103.535 37.5973 103.616 37.4314C103.697 37.2654 103.74 37.0798 103.74 36.8912V30.9345C103.739 30.0752 103.43 29.2514 102.88 28.6438C102.33 28.0362 101.584 27.6943 100.806 27.6933C100.605 27.6928 100.404 27.7157 100.207 27.7616C99.5472 27.9147 98.9554 28.3134 98.5304 28.891C98.1055 29.4687 97.8731 30.1901 97.8722 30.9345Z" fill="#2F2E41"/>
<path d="M86.752 33.4205C86.7912 33.5621 86.8554 33.6936 86.9407 33.8077L89.3513 37.0612C89.3943 37.1213 89.4438 37.1754 89.4987 37.2223C89.6829 37.3881 89.9132 37.4785 90.1508 37.4782C90.3884 37.4779 90.6185 37.3869 90.8023 37.2206L94.9748 33.4486C95.2729 33.1789 95.5201 32.847 95.7021 32.4719C95.8841 32.0967 95.9975 31.6856 96.0357 31.2621C96.0739 30.8385 96.0362 30.4108 95.9248 30.0033C95.8134 29.5958 95.6304 29.2166 95.3863 28.8872C95.1422 28.5579 94.8418 28.2849 94.5022 28.0838C94.1626 27.8827 93.7905 27.7575 93.4071 27.7153C93.0237 27.673 92.6365 27.7147 92.2677 27.8378C91.8988 27.9608 91.5555 28.163 91.2574 28.4326L87.085 32.2047C86.927 32.3484 86.8111 32.5405 86.7519 32.7569C86.6926 32.9733 86.6926 33.2042 86.752 33.4205Z" fill="#2F2E41"/>
<path d="M95.0671 9.38476C93.6532 10.0351 92.1305 10.7546 90.5635 10.5552C89.2798 10.3919 88.0462 9.56275 87.7505 8.09751C87.4679 6.69739 88.052 5.23681 88.9829 4.29894C90.0359 3.23804 91.4897 2.72478 92.8772 2.50829C93.7154 2.3775 94.6467 2.36904 95.4196 2.8025C96.0383 3.14947 96.5944 3.77683 96.6901 4.56545L97.2846 4.38758C96.8644 3.60079 97.0655 2.64718 97.5303 1.94042C98.0893 1.09064 99.0276 0.736746 99.9491 0.707185C101.823 0.647063 103.741 1.60785 105.25 2.77076C106.736 3.92022 107.96 5.43642 108.823 7.19912C109.792 9.17916 110.325 11.5468 110 13.7936C109.668 16.0803 108.329 18.2503 106.256 18.9386C105.864 19.0689 106.031 19.7494 106.426 19.6183C108.404 18.9612 109.866 17.0684 110.427 14.9099C111.072 12.4294 110.629 9.71286 109.639 7.41935C108.762 5.41449 107.452 3.67826 105.826 2.36316C104.2 1.03903 102.092 -0.0260936 100.038 0.000360243C98.8581 0.0155566 97.715 0.480246 97.0007 1.55284C96.3907 2.4686 96.195 3.73469 96.7336 4.74332C96.8815 5.0202 97.3723 4.9294 97.3281 4.56545C97.1042 2.72003 95.4876 1.77133 93.9309 1.73037C93.0523 1.72666 92.1782 1.86944 91.3381 2.15391C90.5609 2.38913 89.8231 2.76163 89.1535 3.25701C87.8964 4.21843 87.0121 5.75371 87.0475 7.48262C87.0828 9.20742 88.1345 10.5323 89.5923 11.0424C91.5162 11.7156 93.4671 10.8784 95.2367 10.0644C95.3168 10.0369 95.3843 9.97679 95.4257 9.89628C95.4671 9.81578 95.4792 9.7209 95.4596 9.63089C95.4367 9.54104 95.3826 9.46479 95.3091 9.4187C95.2357 9.37262 95.1487 9.36042 95.0671 9.38475L95.0671 9.38476Z" fill="#2F2E41"/>
<path d="M69.1684 43.9342C68.8129 43.9327 68.467 43.8062 68.1808 43.5733C67.8906 43.3457 67.6745 43.0209 67.5646 42.6471C67.4546 42.2732 67.4566 41.8701 67.5702 41.4976L68.3981 38.6834C68.4573 38.4831 68.4575 38.2671 68.3985 38.0667C68.3396 37.8662 68.2245 37.6916 68.07 37.568L65.9029 35.8286C65.6158 35.5982 65.4021 35.2732 65.2924 34.9004C65.1828 34.5276 65.1828 34.1259 65.2925 33.7531C65.4021 33.3803 65.6158 33.0554 65.9029 32.8249C66.19 32.5945 66.5357 32.4704 66.8906 32.4704H69.5692C69.76 32.4708 69.946 32.4043 70.1003 32.2804C70.2547 32.1565 70.3694 31.9816 70.428 31.781L71.2559 28.9668C71.3655 28.594 71.5792 28.2691 71.8663 28.0387C72.1534 27.8082 72.4991 27.6841 72.854 27.6841C73.2088 27.6841 73.5546 27.8082 73.8416 28.0387C74.1287 28.2691 74.3424 28.594 74.4521 28.9668L75.2798 31.781C75.3384 31.9816 75.4532 32.1564 75.6075 32.2803C75.7619 32.4043 75.9479 32.4708 76.1387 32.4704H78.8172C79.1721 32.4705 79.5178 32.5946 79.8049 32.825C80.092 33.0554 80.3057 33.3803 80.4153 33.7531C80.525 34.126 80.525 34.5276 80.4153 34.9004C80.3057 35.2732 80.092 35.5981 79.805 35.8286L77.638 37.568C77.4834 37.6916 77.3683 37.8662 77.3093 38.0666C77.2503 38.2671 77.2505 38.4831 77.3098 38.6834L78.1376 41.4976C78.2472 41.8704 78.2472 42.2721 78.1375 42.6449C78.0279 43.0177 77.8142 43.3426 77.5271 43.573C77.24 43.8035 76.8942 43.9276 76.5394 43.9276C76.1845 43.9276 75.8388 43.8035 75.5517 43.5731L73.3848 41.8338C73.2306 41.7096 73.0447 41.6426 72.8539 41.6426C72.6631 41.6426 72.4772 41.7096 72.323 41.8338L70.156 43.5731C69.8698 43.8062 69.5239 43.9327 69.1684 43.9342ZM72.8539 40.7836C73.2089 40.7837 73.5547 40.9082 73.8415 41.1391L76.0085 42.8784C76.1628 43.0023 76.3486 43.069 76.5394 43.0691C76.7301 43.0691 76.916 43.0024 77.0703 42.8786C77.2246 42.7547 77.3395 42.5801 77.3984 42.3797C77.4573 42.1792 77.4573 41.9634 77.3983 41.763L76.5706 38.9488C76.4603 38.576 76.46 38.1742 76.5697 37.8011C76.6794 37.4281 76.8935 37.1033 77.1812 36.8733L79.3481 35.1339C79.5024 35.0101 79.6172 34.8354 79.6761 34.6351C79.7351 34.4347 79.7351 34.2188 79.6761 34.0184C79.6172 33.8181 79.5024 33.6435 79.3481 33.5196C79.1938 33.3958 79.008 33.3291 78.8173 33.3291H76.1387C75.7837 33.3298 75.4376 33.206 75.1504 32.9754C74.8632 32.7449 74.6497 32.4196 74.5406 32.0464L73.7128 29.2322C73.6539 29.0318 73.5391 28.8572 73.3848 28.7333C73.2305 28.6094 73.0446 28.5427 72.8539 28.5427C72.6632 28.5427 72.4773 28.6094 72.323 28.7333C72.1687 28.8572 72.0539 29.0318 71.9949 29.2322L71.1672 32.0464C71.0581 32.4196 70.8446 32.7449 70.5574 32.9754C70.2702 33.206 69.9242 33.3298 69.5692 33.3291H66.8906C66.6999 33.329 66.5141 33.3957 66.3598 33.5196C66.2055 33.6434 66.0906 33.818 66.0317 34.0184C65.9727 34.2188 65.9727 34.4346 66.0316 34.635C66.0906 34.8354 66.2054 35.01 66.3597 35.1339L68.5268 36.8733C68.8144 37.1033 69.0285 37.4282 69.1382 37.8012C69.2479 38.1742 69.2475 38.576 69.1372 38.9488L68.3094 41.763C68.2504 41.9634 68.2504 42.1792 68.3094 42.3796C68.3683 42.58 68.4832 42.7546 68.6375 42.8785C68.7918 43.0023 68.9776 43.069 69.1683 43.069C69.3591 43.069 69.5449 43.0022 69.6992 42.8784L71.8663 41.1391C72.1532 40.9082 72.499 40.7837 72.8539 40.7836Z" fill="#3F3D56"/>
</g>
<defs>
<filter id="filter0_d_237_893" x="0" y="0" width="114.73" height="82" filterUnits="userSpaceOnUse" color-interpolation-filters="sRGB">
<feFlood flood-opacity="0" result="BackgroundImageFix"/>
<feColorMatrix in="SourceAlpha" type="matrix" values="0 0 0 0 0 0 0 0 0 0 0 0 0 0 0 0 0 0 127 0" result="hardAlpha"/>
<feOffset dy="4"/>
<feGaussianBlur stdDeviation="2"/>
<feComposite in2="hardAlpha" operator="out"/>
<feColorMatrix type="matrix" values="0 0 0 0 0 0 0 0 0 0 0 0 0 0 0 0 0 0 0.45 0"/>
<feBlend mode="normal" in2="BackgroundImageFix" result="effect1_dropShadow_237_893"/>
<feBlend mode="normal" in="SourceGraphic" in2="effect1_dropShadow_237_893" result="shape"/>
</filter>
<clipPath id="clip0_237_893">
<rect width="106.73" height="74" fill="white" transform="translate(4)"/>
</clipPath>
</defs>
</svg>
