<svg width="279" height="250" viewBox="0 0 279 250" fill="none" xmlns="http://www.w3.org/2000/svg">
<path d="M252.635 248.842H193.477V246.646C193.477 244.74 194.104 242.911 195.218 241.563C196.333 240.215 197.844 239.457 199.42 239.457H246.692C248.268 239.457 249.78 240.215 250.894 241.563C252.009 242.911 252.635 244.74 252.635 246.646V248.842Z" fill="#E6E6E6"/>
<path d="M221.672 239.895L223.471 239.019C204.647 182.501 206.461 111.2 222.373 50.0355C224.263 42.9487 224.399 35.3482 222.765 28.169C221.131 20.9897 217.797 14.5449 213.174 9.62752C203.939 -0.342076 191.206 -2.77076 179.943 3.28862C168.825 9.27067 167.293 19.6905 167.293 30.0596H169.233C169.233 18.9911 171.188 10.5672 180.731 5.43233C191.287 -0.246418 203.223 2.03133 211.883 11.3783C216.225 15.9968 219.356 22.0499 220.891 28.793C222.426 35.536 222.298 42.6748 220.523 49.3309C204.427 111.201 202.72 182.993 221.672 239.895Z" fill="#E6E6E6"/>
<path d="M168.748 64.666C172.497 64.666 175.536 60.9895 175.536 56.4544C175.536 51.9192 172.497 48.2427 168.748 48.2427C164.999 48.2427 161.959 51.9192 161.959 56.4544C161.959 60.9895 164.999 64.666 168.748 64.666Z" fill="#E6E6E6"/>
<path d="M158.292 70.7695V55.2103H160.293V70.7695C160.866 71.0502 161.341 71.5636 161.636 72.2216C161.932 72.8795 162.028 73.6412 161.91 74.376C161.792 75.1109 161.466 75.7731 160.989 76.2492C160.511 76.7253 159.911 76.9856 159.292 76.9856C158.674 76.9856 158.074 76.7253 157.596 76.2492C157.119 75.7731 156.793 75.1109 156.675 74.376C156.557 73.6412 156.653 72.8795 156.948 72.2216C157.244 71.5636 157.719 71.0502 158.292 70.7695Z" fill="#E6E6E6"/>
<path d="M148.624 43.2567C148.627 39.68 149.803 36.251 151.894 33.7219C153.985 31.1928 156.82 29.7702 159.777 29.7661H178.203C181.161 29.7661 183.997 31.1874 186.089 33.7174C188.18 36.2474 189.355 39.6788 189.355 43.2567C189.355 46.8347 188.18 50.266 186.089 52.796C183.997 55.326 181.161 56.7473 178.203 56.7473H159.777C156.82 56.7433 153.985 55.3206 151.894 52.7915C149.803 50.2624 148.627 46.8334 148.624 43.2567Z" fill="#545AD8"/>
<path d="M122.662 126.799C124.512 98.1683 133.972 84.527 127.915 75.9724C122.113 67.7782 105.771 69.4709 95.2754 77.3339C66.9672 98.5421 56.5961 183.07 93.0245 224.368C127.641 263.612 193.245 251.043 207.825 218.923C211.226 211.428 213.929 198.29 208.95 190.333C196.589 170.578 151.648 206.359 131.666 183.979C119.825 170.716 121.647 142.512 122.662 126.799Z" fill="#3F3D56"/>
<path d="M144.302 112.575C143.614 112.958 143.077 113.65 142.805 114.504C142.533 115.358 142.547 116.307 142.844 117.149C142.907 117.319 142.981 117.483 143.066 117.638L136.99 127.451L140.022 132.933L147.144 118.401C147.648 117.925 148.008 117.26 148.168 116.511C148.327 115.761 148.277 114.969 148.025 114.257C147.879 113.854 147.668 113.49 147.405 113.185C147.142 112.88 146.832 112.641 146.493 112.482C146.153 112.322 145.791 112.245 145.427 112.254C145.063 112.264 144.704 112.36 144.371 112.537C144.348 112.55 144.325 112.562 144.302 112.575Z" fill="#FFB6B6"/>
<path d="M144.297 129.496C144.695 129.922 143.592 130.449 142.425 129.618C142.091 129.378 141.948 129.278 141.911 129.341C141.817 129.5 142.365 130.671 142.218 133.271C142.128 134.823 139.997 137.741 137.578 140.587C134.306 144.435 130.502 148.147 130.502 148.147L129.167 146.854L115.162 133.271L112.798 129.314C113.015 127.751 113.34 126.214 113.77 124.717C114.362 122.645 115.067 120.623 115.878 118.663C116.313 117.597 116.76 116.58 117.188 115.645L124.691 125.647L130.979 134.025C130.979 134.025 132.809 130.458 134.227 129.486C134.408 129.347 134.614 129.261 134.828 129.237C136.261 129.155 136.347 128.211 134.685 126.156C133.023 124.1 135.12 126.019 136.599 125.466C138.077 124.912 136.599 125.466 136.91 124.082C137.221 122.697 141.367 119.92 141.367 119.92L141.539 120.106L144.672 123.451L145.569 124.408C145.569 124.408 144.59 127.658 144.319 128.343C144.049 129.028 143.903 129.064 144.297 129.496Z" fill="#545AD8"/>
<path d="M226.877 192.537L227.03 187.531L211.141 184.437L210.916 191.824L226.877 192.537Z" fill="#FFB6B6"/>
<path d="M223.992 194.044L223.842 186.029L226.674 186.156L231.247 178.746C231.473 178.38 231.79 178.111 232.151 177.978C232.512 177.845 232.899 177.856 233.255 178.008C233.611 178.159 233.917 178.445 234.13 178.823C234.342 179.2 234.449 179.65 234.435 180.106L234.145 189.627L231.293 191.143L234.075 191.909L233.966 195.499L223.992 194.044Z" fill="#2F2E41"/>
<path d="M137.453 194.485L187.779 196.029C187.779 196.029 209.511 197.547 214.61 193.535L219.987 192.714L220.278 183.16C220.278 183.16 216.99 183.189 215.1 182.124C213.209 181.058 214.523 179.755 212.721 181.037C210.918 182.319 211.109 182.473 209.715 181.884C208.322 181.294 144.418 169.512 144.418 169.512L137.453 194.485Z" fill="#2F2E41"/>
<path d="M203.769 190.34L206.696 186.796L196.787 171.455L192.468 176.686L203.769 190.34Z" fill="#FFB6B6"/>
<path d="M200.807 187.257L205.203 181.257L207.208 183.68L214.727 182.01C215.098 181.928 215.481 181.991 215.821 182.191C216.16 182.391 216.438 182.716 216.614 183.121C216.789 183.525 216.854 183.986 216.797 184.438C216.74 184.89 216.566 185.307 216.299 185.63L210.733 192.371L207.79 191.136L209.399 193.987L207.3 196.528L200.807 187.257Z" fill="#2F2E41"/>
<path d="M117.598 161.146L118.098 175.214C118.687 191.775 133.765 201.799 145.456 193.152C145.672 192.992 145.888 192.827 146.105 192.656C146.105 192.656 150.537 191.217 150.403 188.936C150.268 186.656 151.351 185.547 152.309 186.168C153.267 186.79 165.814 165.252 165.814 165.252C165.814 165.252 191.881 180.981 197.631 184.683C197.631 184.683 203.038 174.457 202.646 174.565C202.254 174.672 170.398 147.701 170.398 147.701C170.398 147.701 165.208 141.348 158.771 145.543C158.636 146.159 158.751 146.181 158.751 146.181L137.485 167.141L134.48 160.239L117.598 161.146Z" fill="#2F2E41"/>
<path d="M137.649 143.559C137.609 144.209 137.532 144.855 137.42 145.492C137.267 146.415 137.02 147.311 136.685 148.161C136.685 148.161 136.685 149.109 135.184 152.286C133.683 155.463 135.559 154.101 136.685 156.461C137.81 158.816 136.685 157.732 135.435 159.247C135.076 159.688 134.82 160.238 134.696 160.839C134.571 161.44 134.582 162.07 134.726 162.665C134.726 162.665 118.609 162.678 115.608 161.317C112.607 159.955 111.924 152.286 114.614 151.528C117.3 150.77 113.8 150.017 112.22 148.27C110.641 146.523 113.8 143.664 113.8 143.664C113.8 143.664 112.498 140.945 112.607 131.819C112.622 130.98 112.686 130.143 112.798 129.314C113.014 127.751 113.34 126.214 113.77 124.717C114.362 122.645 115.067 120.623 115.878 118.663C116.313 117.597 116.76 116.58 117.187 115.645C117.255 115.5 117.319 115.359 117.386 115.219C118.2 113.476 118.943 112.051 119.435 111.139C119.814 110.431 120.042 110.032 120.042 110.032L122.774 104.286L131.89 109.455L131.372 117.91L132.944 124.286L133.668 127.222L134.227 129.486L135.09 132.994C135.09 132.994 134.854 133.008 135.135 133.475C136.431 135.559 137.271 138.005 137.578 140.587C137.686 141.572 137.71 142.568 137.649 143.559Z" fill="#545AD8"/>
<path d="M163.976 144.47L163.805 144.403L141.985 135.904L150.026 103.996C150.186 103.36 150.463 102.777 150.837 102.29C151.21 101.803 151.67 101.425 152.182 101.185C152.694 100.944 153.244 100.847 153.791 100.901C154.339 100.955 154.869 101.159 155.342 101.497L169.285 111.462C170.389 112.25 171.229 113.482 171.658 114.943C172.087 116.404 172.078 118 171.632 119.454L163.976 144.47Z" fill="#2F2E41"/>
<path d="M164.065 146.499L142.07 137.931L150.11 106.023C150.27 105.387 150.547 104.804 150.921 104.317C151.295 103.83 151.755 103.452 152.266 103.212C152.778 102.971 153.329 102.874 153.876 102.928C154.423 102.982 154.953 103.186 155.426 103.524L170.036 112.347C172.23 113.915 172.179 117.974 171.16 121.304L164.065 146.499Z" fill="#545AD8"/>
<path d="M161.863 148.808C161.356 149.154 160.796 149.368 160.217 149.438C159.639 149.508 159.054 149.431 158.501 149.213L144.442 143.736C143.364 143.31 142.466 142.39 141.94 141.174C141.414 139.957 141.303 138.54 141.629 137.226L148.677 109.254C148.818 108.695 149.05 108.176 149.359 107.727C149.668 107.278 150.048 106.908 150.476 106.639C150.905 106.37 151.374 106.207 151.855 106.16C152.337 106.113 152.821 106.182 153.28 106.365L167.849 112.151C168.543 112.427 169.185 112.868 169.736 113.449C170.287 114.029 170.736 114.737 171.057 115.531C171.377 116.325 171.563 117.189 171.604 118.072C171.644 118.954 171.537 119.838 171.291 120.669L163.754 146.084C163.416 147.238 162.744 148.206 161.863 148.808Z" fill="#3F3D56"/>
<path d="M131.374 104.384C136.936 104.384 141.444 98.9308 141.444 92.2036C141.444 85.4764 136.936 80.0229 131.374 80.0229C125.813 80.0229 121.305 85.4764 121.305 92.2036C121.305 98.9308 125.813 104.384 131.374 104.384Z" fill="#FFB6B6"/>
<path d="M97.3238 104.568C98.2479 106.735 99.7631 108.448 101.612 109.418C102.35 109.824 103.126 110.121 103.923 110.302C104.149 109.221 104.509 108.189 104.993 107.24C104.832 108.309 104.832 109.405 104.993 110.475C106.207 110.595 107.429 110.411 108.582 109.936C109.715 109.47 110.742 108.691 111.582 107.661C112.423 106.631 113.053 105.379 113.423 104.003C114.226 100.774 113.362 97.3258 113.294 93.9556C113.223 90.5851 114.547 86.5538 117.313 86.1368C119.419 85.8187 119.159 86.0657 120.672 87.8658C118.555 90.7108 123.717 103.312 126.486 102.755C128.052 102.44 129.205 100.936 129.514 100.988C131.1 105.686 126.33 112.349 130.113 114.537L129.833 114.087C127.852 110.13 133.712 103.445 131.732 99.4875C131.18 98.3804 130.606 97.0824 130.947 95.8577C131.271 94.6932 132.913 94.3247 133.26 95.3845C132.697 92.9553 134.269 90.1041 136.357 89.8562C138.212 89.6348 138.105 90.2743 139.873 90.8579C140.099 89.9362 140.425 89.0548 140.842 88.2363C140.701 89.1701 140.683 90.125 140.79 91.0654C141.428 91.1574 142.073 90.9922 142.626 90.5954C144.259 89.411 144.308 86.3539 143.186 84.4932C142.062 82.6322 140.179 81.7134 138.362 81.0181C138.346 76.3716 128.01 74.1472 126.109 78.4672C125.913 74.9693 122.599 72.6131 119.743 73.2073C116.888 73.8015 114.635 76.5711 113.262 79.6581C111.888 82.7426 111.207 86.1965 110.202 89.4821C109.196 92.7676 107.759 96.0438 105.352 97.9932C102.945 99.9401 99.3685 100.117 97.3589 97.5935C96.9006 98.671 96.6586 99.8639 96.6525 101.076C96.6464 102.287 96.8764 103.484 97.3238 104.568Z" fill="#2F2E41"/>
<path d="M107.656 160.269C107.864 160.068 108.09 159.895 108.33 159.753C112.184 157.433 124.17 151.41 133.542 151.657C151.575 152.132 174.524 176.205 169.183 192.371C165.119 204.672 144.914 211.671 130.166 206.073C109.504 198.232 101.349 166.352 107.656 160.269Z" fill="#3F3D56"/>
<path d="M32.795 248.888C26.9026 247.544 21.6869 215.433 33.2799 199.618C37.2518 194.2 42.2063 191.842 48.7966 189.647C86.7285 177.015 115.66 189.054 119.548 191.993C123.427 194.926 130.228 239.114 121.531 245.369C116.638 248.888 106.94 250.648 102.135 246.542C95.0652 240.501 106.933 224.83 101.651 214.282C95.6564 202.312 64.0925 198.28 48.2678 210.176C31.3844 222.868 66.209 256.513 32.795 248.888Z" fill="#F2F2F2"/>
<path d="M72.1905 194.293H49.6796C44.1226 187.851 40.1494 181.643 43.3304 176.489C43.3304 175.008 43.8169 173.587 44.6829 172.539C45.5488 171.492 46.7234 170.903 47.948 170.903H73.9221C75.1467 170.903 76.3212 171.492 77.1872 172.539C78.0532 173.587 78.5397 175.008 78.5397 176.489C79.7508 182.361 77.5871 188.297 72.1905 194.293Z" fill="#CCCCCC"/>
<path d="M68.1477 163.872C67.9341 163.883 67.7227 163.816 67.542 163.677C67.3614 163.539 67.2202 163.337 67.1378 163.098C67.0553 162.859 67.0354 162.596 67.0809 162.343C67.1264 162.091 67.235 161.861 67.392 161.685L67.4634 161.342C67.454 161.314 67.4445 161.287 67.435 161.259C67.2199 160.644 66.8593 160.12 66.3986 159.753C65.938 159.385 65.3978 159.19 64.8459 159.192C64.294 159.195 63.755 159.395 63.2966 159.766C62.8382 160.138 62.4809 160.666 62.2695 161.282C61.4247 163.744 60.349 166.209 60.0842 168.812C59.9675 169.962 60.0167 171.128 60.2296 172.258C58.2453 167.022 57.2149 161.331 57.2083 155.572C57.2079 154.126 57.2742 152.682 57.4071 151.245C57.5169 150.068 57.6693 148.899 57.8642 147.738C58.9277 141.44 61.2112 135.536 64.5271 130.513C66.132 129.454 67.4299 127.825 68.2459 125.846C68.5415 125.134 68.7505 124.375 68.8662 123.591C68.6852 123.62 68.1836 120.285 68.3201 120.08C68.0678 119.617 67.6162 119.387 67.3407 118.935C65.9703 116.687 64.0822 117.08 63.0966 120.134C60.991 121.419 60.9706 123.551 62.2626 125.602C63.0846 126.906 63.1975 128.671 63.9187 130.068C63.8445 130.182 63.7673 130.294 63.6931 130.409C62.3368 132.518 61.1546 134.784 60.1636 137.172C60.4046 134.496 60.117 131.79 59.3244 129.274C58.5211 126.93 57.0154 124.956 55.6895 122.929C54.0968 120.495 50.8309 121.558 50.5503 124.643C50.5476 124.673 50.545 124.703 50.5424 124.733C50.7393 124.867 50.9321 125.01 51.1207 125.161C51.3577 125.352 51.5413 125.626 51.6475 125.946C51.7537 126.266 51.7776 126.617 51.7159 126.953C51.6543 127.29 51.51 127.596 51.3021 127.832C51.0941 128.068 50.8321 128.222 50.5504 128.274L50.5216 128.28C50.5918 129.138 50.7158 129.989 50.8926 130.825C49.1916 138.782 52.8639 141.681 58.1076 141.811C58.2233 141.883 58.3361 141.954 58.4519 142.023C57.4562 145.436 56.8317 148.991 56.5939 152.599C56.4594 154.728 56.4673 156.866 56.6177 158.993L56.6088 158.917C56.2289 156.552 55.1858 154.418 53.6557 152.875C51.3832 150.617 48.1725 149.786 45.7208 147.971C45.4602 147.768 45.1573 147.66 44.8476 147.659C44.538 147.658 44.2346 147.765 43.9732 147.965C43.7119 148.166 43.5034 148.453 43.3725 148.793C43.2416 149.132 43.1936 149.51 43.2343 149.881C43.2376 149.907 43.2409 149.934 43.2443 149.96C43.6098 150.14 43.9656 150.348 44.3098 150.581C44.5067 150.716 44.6995 150.858 44.8881 151.009C45.1251 151.201 45.3087 151.474 45.4149 151.794C45.5211 152.114 45.545 152.465 45.4833 152.802C45.4217 153.139 45.2774 153.445 45.0695 153.68C44.8615 153.916 44.5995 154.07 44.3179 154.123L44.289 154.128C44.2682 154.132 44.2504 154.135 44.2297 154.139C44.8541 155.943 45.7306 157.603 46.8206 159.047C47.8842 165.993 52.4524 166.652 57.3389 164.629H57.3418C57.878 167.447 58.6548 170.191 59.6598 172.815H67.9402C67.9699 172.703 67.9966 172.588 68.0233 172.477C67.2569 172.535 66.4874 172.48 65.7321 172.312C66.3465 171.4 66.9608 170.481 67.5752 169.569C67.5889 169.552 67.6018 169.534 67.6138 169.515C67.9254 169.049 68.24 168.585 68.5516 168.119L68.5518 168.118C68.5684 166.688 68.4327 165.26 68.148 163.872L68.1477 163.872Z" fill="#CCCCCC"/>
<path d="M96.3908 192.834C96.5281 193.318 96.7887 193.737 97.1349 194.03C97.4812 194.323 97.8955 194.477 98.3182 194.467L106.576 194.21C107.002 194.2 107.414 194.024 107.75 193.707C108.086 193.391 108.328 192.951 108.441 192.454L109.609 177.338C110.024 177.566 110.475 177.678 110.93 177.667C111.729 177.643 112.487 177.236 113.037 176.536C113.588 175.835 113.886 174.899 113.866 173.934C113.846 172.968 113.509 172.051 112.93 171.385C112.351 170.719 111.578 170.359 110.779 170.383C110.597 170.382 110.416 170.405 110.238 170.451C110.045 170.198 109.809 169.997 109.548 169.86C109.286 169.724 109.004 169.655 108.719 169.658L96.0158 170.055C95.9104 170.06 95.8056 170.075 95.7024 170.102C95.4239 170.165 95.1596 170.299 94.9276 170.496C94.6955 170.693 94.5009 170.947 94.357 171.242C94.2131 171.538 94.1231 171.867 94.0931 172.208C94.0632 172.548 94.0939 172.893 94.1833 173.218L96.3908 192.834ZM109.849 176.312L110.681 172.71C110.775 172.294 110.777 171.855 110.687 171.438C110.727 171.437 110.763 171.414 110.803 171.414C111.373 171.4 111.925 171.66 112.337 172.137C112.749 172.614 112.987 173.269 113.001 173.958C113.014 174.648 112.801 175.316 112.408 175.816C112.015 176.315 111.474 176.606 110.904 176.624C110.535 176.638 110.171 176.53 109.849 176.312Z" fill="#CCCCCC"/>
<path d="M95.7024 170.102C95.973 171.974 99.0157 173.29 102.674 173.061C106.039 172.873 108.79 171.444 109.294 169.751C109.107 169.684 108.913 169.653 108.719 169.658L96.0157 170.055C95.9104 170.06 95.8055 170.075 95.7024 170.102Z" fill="white"/>
<path d="M0.442264 249.597L278.558 249.735C278.675 249.735 278.788 249.679 278.87 249.579C278.953 249.478 279 249.342 279 249.2C279 249.058 278.953 248.922 278.87 248.822C278.788 248.722 278.675 248.665 278.558 248.665L0.442264 248.527C0.324967 248.527 0.212477 248.584 0.129536 248.684C0.0465948 248.784 0 248.92 0 249.062C0 249.204 0.0465948 249.34 0.129536 249.441C0.212477 249.541 0.324967 249.597 0.442264 249.597Z" fill="#CACACA"/>
<path d="M156.429 130.035C155.673 130.069 154.957 130.458 154.434 131.12C153.911 131.782 153.623 132.664 153.63 133.58C153.634 133.766 153.65 133.951 153.679 134.134L144.951 140.367L146.007 146.837L157.201 136.735C157.818 136.53 158.362 136.084 158.747 135.466C159.133 134.848 159.338 134.094 159.332 133.32C159.325 132.879 159.246 132.445 159.1 132.041C158.954 131.638 158.744 131.273 158.481 130.968C158.219 130.662 157.909 130.423 157.57 130.262C157.231 130.102 156.869 130.023 156.505 130.032C156.48 130.033 156.454 130.034 156.429 130.035Z" fill="#FFB6B6"/>
<path d="M149.278 144.895C149.045 144.517 148.944 144.358 148.891 144.402C148.755 144.501 148.886 145.838 147.925 148.168C146.571 151.441 132.382 156.454 132.382 156.454L130.635 152.586L122.951 135.584L120.302 121.957C120.21 121.481 120.165 120.995 120.168 120.506C122.53 118.496 125.038 116.75 127.661 115.29C128.709 116.009 129.508 117.16 129.912 118.534L135.202 136.474L137.312 143.637C137.312 143.637 141.036 140.416 142.386 141.008C143.735 141.602 144.118 140.768 143.236 138.098C142.355 135.428 143.678 138.177 145.218 138.351C146.76 138.529 145.218 138.351 145.946 137.218C146.675 136.085 151.386 135.448 151.386 135.448L151.486 135.701L153.312 140.243L153.834 141.549C153.834 141.549 151.899 144.089 151.432 144.595C150.963 145.105 150.818 145.07 151.047 145.651C151.274 146.229 150.089 146.203 149.278 144.895Z" fill="#545AD8"/>
</svg>
