<svg width="299" height="328" viewBox="0 0 299 328" fill="none" xmlns="http://www.w3.org/2000/svg">
<g filter="url(#filter0_d_353_195)">
<circle cx="144" cy="180" r="140" fill="#545AD8"/>
</g>
<g filter="url(#filter1_d_353_195)">
<circle cx="155" cy="164" r="140" fill="white"/>
</g>
<path d="M251.265 228.935H202.497V226.915C202.497 225.161 203.014 223.478 203.932 222.238C204.851 220.998 206.097 220.301 207.397 220.301H246.366C247.665 220.301 248.912 220.998 249.83 222.238C250.749 223.478 251.265 225.161 251.265 226.915V228.935Z" fill="#E6E6E6"/>
<path d="M225.74 220.704L227.223 219.898C211.706 167.901 213.201 102.304 226.318 46.0326C227.876 39.5128 227.989 32.5203 226.641 25.9154C225.294 19.3105 222.546 13.3813 218.735 8.85732C211.121 -0.31471 200.625 -2.5491 191.34 3.02553C182.175 8.52902 180.912 18.1153 180.912 27.6549H182.511C182.511 17.4718 184.123 9.72183 191.99 4.99774C200.692 -0.226704 210.532 1.86882 217.67 10.468C221.25 14.7171 223.831 20.2859 225.097 26.4895C226.362 32.6931 226.256 39.2608 224.793 45.3845C211.524 102.305 210.117 168.353 225.74 220.704Z" fill="#E6E6E6"/>
<path d="M182.111 59.4928C185.202 59.4928 187.707 56.1104 187.707 51.938C187.707 47.7657 185.202 44.3833 182.111 44.3833C179.02 44.3833 176.515 47.7657 176.515 51.938C176.515 56.1104 179.02 59.4928 182.111 59.4928Z" fill="#E6E6E6"/>
<path d="M173.492 65.1079V50.7935H175.141V65.1079C175.614 65.3661 176.006 65.8384 176.249 66.4438C176.492 67.0491 176.572 67.7499 176.474 68.4259C176.377 69.1019 176.108 69.7112 175.715 70.1492C175.321 70.5872 174.827 70.8267 174.317 70.8267C173.806 70.8267 173.312 70.5872 172.918 70.1492C172.525 69.7112 172.256 69.1019 172.159 68.4259C172.061 67.7499 172.141 67.0491 172.384 66.4438C172.628 65.8384 173.019 65.3661 173.492 65.1079Z" fill="#E6E6E6"/>
<path d="M165.522 39.7961C165.524 36.5056 166.494 33.3509 168.218 31.0241C169.941 28.6973 172.278 27.3885 174.716 27.3848H189.906C192.344 27.3848 194.683 28.6924 196.407 31.02C198.131 33.3476 199.1 36.5044 199.1 39.7961C199.1 43.0878 198.131 46.2447 196.407 48.5723C194.683 50.8999 192.344 52.2075 189.906 52.2075H174.716C172.278 52.2038 169.941 50.8949 168.218 48.5682C166.494 46.2414 165.524 43.0867 165.522 39.7961Z" fill="#545AD8"/>
<path d="M144.12 116.655C145.645 90.3148 153.443 77.7648 148.45 69.8946C143.667 62.3559 130.195 63.9132 121.543 71.1471C98.206 90.6587 89.6564 168.424 119.687 206.419C148.224 242.523 202.306 230.96 214.325 201.409C217.129 194.514 219.357 182.426 215.253 175.106C205.063 156.932 168.014 189.85 151.542 169.261C141.78 157.059 143.283 131.111 144.12 116.655Z" fill="#3F3D56"/>
<path d="M161.958 103.569C161.392 103.921 160.949 104.558 160.725 105.344C160.5 106.13 160.512 107.003 160.757 107.777C160.809 107.934 160.87 108.084 160.94 108.227L155.931 117.255L158.43 122.298L164.301 108.929C164.717 108.491 165.014 107.879 165.146 107.19C165.277 106.5 165.236 105.771 165.028 105.117C164.907 104.746 164.733 104.411 164.517 104.13C164.3 103.85 164.044 103.63 163.765 103.483C163.485 103.336 163.186 103.265 162.886 103.274C162.586 103.283 162.29 103.371 162.016 103.534C161.996 103.546 161.977 103.557 161.958 103.569Z" fill="#FFB6B6"/>
<path d="M161.954 119.136C162.282 119.528 161.373 120.013 160.411 119.249C160.136 119.027 160.018 118.936 159.987 118.994C159.91 119.14 160.362 120.217 160.241 122.61C160.167 124.037 158.41 126.722 156.415 129.34C153.718 132.88 150.582 136.295 150.582 136.295L149.481 135.106L137.936 122.61L135.988 118.969C136.166 117.531 136.434 116.116 136.789 114.74C137.277 112.834 137.858 110.973 138.527 109.17C138.885 108.189 139.254 107.254 139.606 106.394L145.792 115.595L150.975 123.303C150.975 123.303 152.484 120.021 153.653 119.128C153.802 118.999 153.972 118.92 154.148 118.898C155.33 118.823 155.401 117.954 154.031 116.063C152.661 114.172 154.389 115.938 155.608 115.429C156.827 114.919 155.608 115.429 155.865 114.155C156.121 112.882 159.539 110.327 159.539 110.327L159.681 110.498L162.264 113.575L163.003 114.456C163.003 114.456 162.196 117.445 161.973 118.075C161.75 118.706 161.63 118.739 161.954 119.136Z" fill="#545AD8"/>
<path d="M230.031 177.134L230.157 172.529L217.059 169.682L216.873 176.478L230.031 177.134Z" fill="#FFB6B6"/>
<path d="M227.654 178.52L227.529 171.147L229.864 171.263L233.634 164.447C233.82 164.11 234.081 163.862 234.379 163.74C234.677 163.618 234.996 163.627 235.289 163.767C235.583 163.907 235.835 164.169 236.01 164.517C236.186 164.864 236.274 165.278 236.262 165.698L236.023 174.457L233.672 175.852L235.965 176.556L235.875 179.859L227.654 178.52Z" fill="#2F2E41"/>
<path d="M156.312 178.927L197.8 180.347C197.8 180.347 215.715 181.744 219.919 178.052L224.351 177.297L224.591 168.507C224.591 168.507 221.881 168.534 220.322 167.554C218.764 166.574 219.847 165.374 218.361 166.554C216.875 167.733 217.032 167.875 215.884 167.333C214.735 166.791 162.054 155.951 162.054 155.951L156.312 178.927Z" fill="#2F2E41"/>
<path d="M210.982 175.113L213.394 171.852L205.226 157.739L201.666 162.551L210.982 175.113Z" fill="#FFB6B6"/>
<path d="M208.54 172.276L212.164 166.756L213.817 168.986L220.015 167.45C220.321 167.374 220.637 167.432 220.917 167.616C221.197 167.799 221.426 168.099 221.571 168.471C221.715 168.843 221.768 169.268 221.722 169.683C221.675 170.098 221.531 170.483 221.311 170.78L216.723 176.981L214.297 175.845L215.623 178.468L213.893 180.806L208.54 172.276Z" fill="#2F2E41"/>
<path d="M139.945 148.254L140.357 161.197C140.843 176.433 153.272 185.655 162.91 177.7C163.088 177.553 163.266 177.401 163.445 177.244C163.445 177.244 167.099 175.919 166.988 173.822C166.877 171.724 167.77 170.703 168.56 171.275C169.35 171.847 179.692 152.032 179.692 152.032C179.692 152.032 201.181 166.502 205.922 169.909C205.922 169.909 210.379 160.501 210.056 160.599C209.733 160.698 183.471 135.885 183.471 135.885C183.471 135.885 179.193 130.04 173.886 133.899C173.776 134.466 173.87 134.486 173.87 134.486L156.339 153.77L153.862 147.42L139.945 148.254Z" fill="#2F2E41"/>
<path d="M156.474 132.074C156.441 132.672 156.378 133.267 156.285 133.853C156.159 134.702 155.955 135.526 155.679 136.308C155.679 136.308 155.679 137.181 154.442 140.103C153.205 143.026 154.751 141.773 155.679 143.944C156.607 146.111 155.679 145.113 154.649 146.508C154.353 146.913 154.142 147.419 154.039 147.972C153.937 148.525 153.945 149.105 154.065 149.651C154.065 149.651 140.778 149.664 138.304 148.411C135.83 147.159 135.267 140.103 137.484 139.406C139.699 138.709 136.813 138.016 135.511 136.408C134.209 134.801 136.813 132.17 136.813 132.17C136.813 132.17 135.74 129.67 135.83 121.274C135.843 120.501 135.895 119.731 135.988 118.969C136.166 117.531 136.434 116.116 136.789 114.74C137.277 112.834 137.858 110.973 138.527 109.17C138.885 108.189 139.254 107.254 139.606 106.394C139.662 106.26 139.714 106.131 139.77 106.001C140.441 104.398 141.054 103.087 141.459 102.248C141.771 101.597 141.96 101.229 141.96 101.229L144.211 95.9435L151.727 100.699L151.3 108.477L152.596 114.343L153.193 117.044L153.653 119.128L154.365 122.355C154.365 122.355 154.17 122.367 154.402 122.797C155.47 124.715 156.163 126.965 156.415 129.34C156.504 130.246 156.524 131.163 156.474 132.074Z" fill="#545AD8"/>
<path d="M178.178 132.913L178.037 132.851L160.049 125.032L166.677 95.676C166.809 95.0915 167.038 94.555 167.346 94.107C167.654 93.659 168.033 93.3112 168.455 93.0899C168.877 92.8685 169.33 92.7793 169.782 92.8291C170.233 92.8788 170.67 93.0662 171.06 93.377L182.554 102.545C183.464 103.27 184.157 104.403 184.51 105.747C184.864 107.091 184.856 108.56 184.489 109.898L178.178 132.913Z" fill="#2F2E41"/>
<path d="M178.251 134.779L160.118 126.896L166.747 97.5409C166.879 96.9563 167.107 96.4199 167.415 95.9719C167.723 95.5239 168.102 95.1761 168.524 94.9547C168.946 94.7334 169.4 94.6442 169.851 94.6939C170.302 94.7437 170.739 94.931 171.129 95.2419L183.173 103.359C184.982 104.802 184.94 108.536 184.099 111.6L178.251 134.779Z" fill="#545AD8"/>
<path d="M176.436 136.904C176.018 137.222 175.556 137.419 175.079 137.483C174.602 137.547 174.12 137.476 173.664 137.276L162.075 132.237C161.185 131.845 160.445 130.999 160.012 129.88C159.578 128.761 159.486 127.457 159.755 126.248L165.566 100.514C165.682 99.9997 165.873 99.5221 166.127 99.1089C166.382 98.6957 166.695 98.3554 167.049 98.1078C167.402 97.8602 167.788 97.7103 168.185 97.667C168.582 97.6236 168.981 97.6877 169.36 97.8554L181.37 103.179C181.943 103.433 182.471 103.839 182.926 104.373C183.38 104.907 183.75 105.558 184.014 106.289C184.279 107.02 184.432 107.814 184.465 108.626C184.499 109.438 184.411 110.251 184.207 111.016L177.995 134.398C177.716 135.459 177.162 136.349 176.436 136.904Z" fill="#3F3D56"/>
<path d="M151.302 96.0335C155.886 96.0335 159.603 91.0163 159.603 84.8273C159.603 78.6383 155.886 73.6211 151.302 73.6211C146.717 73.6211 143 78.6383 143 84.8273C143 91.0163 146.717 96.0335 151.302 96.0335Z" fill="#FFB6B6"/>
<path d="M123.231 96.2025C123.993 98.1959 125.242 99.7722 126.766 100.664C127.375 101.038 128.015 101.312 128.672 101.478C128.857 100.484 129.155 99.5337 129.553 98.6607C129.42 99.6446 129.42 100.653 129.553 101.637C130.554 101.747 131.562 101.579 132.512 101.141C133.446 100.712 134.293 99.9958 134.985 99.0484C135.678 98.1009 136.198 96.9486 136.503 95.6828C137.164 92.7123 136.452 89.5397 136.396 86.4392C136.338 83.3383 137.429 79.6295 139.709 79.2459C141.446 78.9532 141.231 79.1804 142.479 80.8365C140.733 83.4539 144.989 95.0467 147.272 94.5345C148.563 94.2448 149.513 92.8613 149.768 92.9093C151.075 97.2315 147.143 103.361 150.262 105.374L150.03 104.96C148.398 101.319 153.229 95.1696 151.596 91.5285C151.141 90.51 150.668 89.3158 150.949 88.1891C151.217 87.1178 152.57 86.7787 152.856 87.7538C152.391 85.5189 153.687 82.8958 155.409 82.6677C156.938 82.464 156.85 83.0524 158.308 83.5892C158.494 82.7413 158.762 81.9304 159.106 81.1774C158.99 82.0365 158.975 82.915 159.064 83.7801C159.589 83.8648 160.121 83.7128 160.577 83.3478C161.923 82.2581 161.963 79.4456 161.038 77.7338C160.112 76.0217 158.56 75.1763 157.062 74.5367C157.048 70.2619 148.528 68.2154 146.961 72.1898C146.799 68.9718 144.067 66.8041 141.713 67.3507C139.359 67.8974 137.502 70.4454 136.37 73.2854C135.238 76.1232 134.676 79.3008 133.847 82.3235C133.018 85.3462 131.834 88.3603 129.849 90.1537C127.865 91.9449 124.917 92.1076 123.26 89.786C122.882 90.7773 122.683 91.8748 122.678 92.9896C122.673 94.1044 122.862 95.2051 123.231 96.2025Z" fill="#2F2E41"/>
<path d="M131.749 147.448C131.92 147.262 132.107 147.103 132.304 146.973C135.482 144.838 145.363 139.297 153.089 139.524C167.954 139.962 186.873 162.109 182.47 176.982C179.12 188.299 162.464 194.737 150.305 189.588C133.272 182.373 126.549 153.044 131.749 147.448Z" fill="#3F3D56"/>
<path d="M70.0352 228.977C65.1777 227.74 60.878 198.198 70.4349 183.649C73.7093 178.664 77.7936 176.494 83.2265 174.475C114.497 162.854 138.347 173.93 141.552 176.634C144.75 179.332 150.356 219.985 143.187 225.74C139.153 228.977 131.159 230.596 127.198 226.819C121.369 221.261 131.152 206.844 126.798 197.139C121.856 186.127 95.836 182.418 82.7906 193.362C68.8724 205.038 97.5808 235.992 70.0352 228.977Z" fill="#F2F2F2"/>
<path d="M102.512 178.75H83.9544C79.3734 172.823 76.0979 167.111 78.7203 162.37C78.7203 161.007 79.1213 159.7 79.8352 158.736C80.5491 157.773 81.5173 157.231 82.5269 157.231H103.939C104.949 157.231 105.917 157.773 106.631 158.736C107.345 159.7 107.746 161.007 107.746 162.37C108.744 167.772 106.961 173.233 102.512 178.75Z" fill="#CCCCCC"/>
<path d="M99.1789 150.762C99.0029 150.773 98.8286 150.71 98.6796 150.583C98.5307 150.456 98.4144 150.27 98.3464 150.05C98.2784 149.831 98.262 149.588 98.2995 149.356C98.337 149.123 98.4265 148.912 98.5559 148.75L98.6148 148.434C98.6071 148.409 98.5993 148.384 98.5914 148.358C98.414 147.793 98.1168 147.311 97.7371 146.972C97.3573 146.634 96.912 146.455 96.457 146.457C96.002 146.459 95.5577 146.643 95.1798 146.985C94.802 147.327 94.5074 147.812 94.3331 148.38C93.6367 150.644 92.7499 152.912 92.5316 155.307C92.4354 156.365 92.476 157.438 92.6515 158.477C91.0157 153.66 90.1662 148.425 90.1608 143.126C90.1604 141.796 90.2151 140.467 90.3247 139.146C90.4152 138.062 90.5408 136.987 90.7015 135.919C91.5783 130.124 93.4607 124.693 96.1942 120.072C97.5173 119.097 98.5872 117.599 99.2599 115.778C99.5036 115.124 99.6758 114.425 99.7713 113.704C99.622 113.73 99.2085 110.662 99.3211 110.474C99.1131 110.048 98.7408 109.836 98.5137 109.42C97.384 107.352 95.8275 107.713 95.0149 110.523C93.2792 111.706 93.2624 113.667 94.3274 115.553C95.005 116.754 95.0981 118.377 95.6927 119.662C95.6315 119.768 95.5679 119.87 95.5067 119.976C94.3886 121.917 93.4141 124.001 92.5971 126.199C92.7958 123.737 92.5587 121.246 91.9052 118.932C91.243 116.776 90.0018 114.959 88.9087 113.095C87.5958 110.856 84.9035 111.833 84.6721 114.672C84.6699 114.699 84.6677 114.727 84.6656 114.754C84.8279 114.878 84.9869 115.009 85.1424 115.148C85.3377 115.324 85.4891 115.576 85.5766 115.87C85.6642 116.164 85.6839 116.488 85.633 116.797C85.5822 117.107 85.4633 117.389 85.2919 117.605C85.1204 117.822 84.9044 117.964 84.6722 118.012L84.6485 118.017C84.7063 118.807 84.8085 119.59 84.9543 120.359C83.552 127.68 86.5794 130.346 90.9021 130.466C90.9975 130.532 91.0905 130.598 91.186 130.661C90.3651 133.801 89.8503 137.072 89.6543 140.391C89.5434 142.349 89.5499 144.316 89.6739 146.273L89.6666 146.204C89.3534 144.028 88.4935 142.065 87.2321 140.645C85.3587 138.568 82.7119 137.803 80.6908 136.133C80.476 135.947 80.2262 135.847 79.971 135.846C79.7157 135.846 79.4656 135.943 79.2502 136.128C79.0347 136.313 78.8629 136.577 78.7549 136.889C78.647 137.201 78.6075 137.549 78.641 137.89C78.6437 137.915 78.6465 137.939 78.6493 137.963C78.9505 138.129 79.2439 138.32 79.5276 138.535C79.69 138.658 79.8489 138.79 80.0044 138.928C80.1997 139.105 80.3511 139.356 80.4386 139.651C80.5262 139.945 80.5459 140.268 80.495 140.578C80.4442 140.887 80.3253 141.169 80.1539 141.386C79.9824 141.603 79.7665 141.745 79.5343 141.793L79.5105 141.798C79.4933 141.801 79.4787 141.805 79.4616 141.808C79.9763 143.467 80.6989 144.994 81.5975 146.323C82.4743 152.714 86.2401 153.32 90.2684 151.459H90.2709C90.7129 154.052 91.3533 156.575 92.1817 158.989H99.0079C99.0324 158.887 99.0544 158.781 99.0764 158.679C98.4446 158.733 97.8102 158.682 97.1876 158.527C97.694 157.688 98.2005 156.843 98.707 156.004C98.7183 155.988 98.7289 155.971 98.7388 155.954C98.9957 155.525 99.255 155.099 99.5119 154.669L99.5121 154.669C99.5257 153.353 99.4139 152.04 99.1792 150.762L99.1789 150.762Z" fill="#CCCCCC"/>
<path d="M122.462 177.408C122.575 177.853 122.79 178.238 123.075 178.508C123.361 178.778 123.702 178.918 124.051 178.91L130.859 178.673C131.21 178.664 131.549 178.502 131.826 178.211C132.103 177.919 132.303 177.515 132.396 177.058L133.359 163.151C133.701 163.36 134.073 163.464 134.448 163.453C135.106 163.431 135.731 163.057 136.185 162.413C136.638 161.769 136.884 160.908 136.868 160.019C136.851 159.13 136.574 158.287 136.097 157.674C135.619 157.062 134.982 156.73 134.323 156.752C134.173 156.752 134.024 156.773 133.877 156.815C133.718 156.582 133.524 156.397 133.308 156.271C133.092 156.146 132.86 156.082 132.625 156.086L122.153 156.451C122.066 156.455 121.979 156.469 121.894 156.494C121.665 156.552 121.447 156.675 121.256 156.856C121.064 157.037 120.904 157.271 120.785 157.543C120.667 157.815 120.592 158.117 120.568 158.431C120.543 158.745 120.568 159.062 120.642 159.361L122.462 177.408ZM133.556 162.207L134.242 158.893C134.32 158.51 134.322 158.107 134.247 157.723C134.28 157.723 134.31 157.701 134.343 157.701C134.813 157.688 135.268 157.927 135.607 158.366C135.947 158.805 136.144 159.407 136.155 160.042C136.166 160.676 135.99 161.291 135.666 161.75C135.342 162.21 134.896 162.478 134.426 162.494C134.122 162.507 133.822 162.408 133.556 162.207Z" fill="#CCCCCC"/>
<path d="M121.895 156.494C122.118 158.216 124.626 159.427 127.642 159.216C130.416 159.044 132.683 157.729 133.099 156.171C132.945 156.109 132.785 156.081 132.625 156.085L122.153 156.451C122.066 156.455 121.98 156.469 121.895 156.494Z" fill="white"/>
<path d="M43.3646 229.629L272.635 229.756C272.732 229.756 272.825 229.705 272.893 229.612C272.962 229.52 273 229.395 273 229.264C273 229.134 272.962 229.009 272.893 228.916C272.825 228.824 272.732 228.772 272.635 228.772L43.3646 228.645C43.2679 228.645 43.1752 228.697 43.1068 228.789C43.0384 228.881 43 229.007 43 229.137C43 229.268 43.0384 229.393 43.1068 229.485C43.1752 229.578 43.2679 229.629 43.3646 229.629Z" fill="#CACACA"/>
<path d="M171.956 119.632C171.332 119.663 170.742 120.021 170.311 120.63C169.88 121.239 169.642 122.051 169.648 122.893C169.651 123.064 169.665 123.235 169.689 123.403L162.493 129.138L163.364 135.09L172.592 125.796C173.101 125.608 173.549 125.197 173.867 124.629C174.184 124.06 174.354 123.366 174.349 122.654C174.343 122.249 174.278 121.849 174.157 121.478C174.037 121.107 173.864 120.771 173.647 120.49C173.431 120.209 173.176 119.989 172.896 119.841C172.617 119.694 172.318 119.622 172.018 119.63C171.997 119.63 171.977 119.631 171.956 119.632Z" fill="#FFB6B6"/>
<path d="M166.061 133.303C165.868 132.955 165.786 132.81 165.742 132.85C165.629 132.941 165.738 134.171 164.945 136.315C163.83 139.326 152.132 143.938 152.132 143.938L150.692 140.379L144.358 124.737L142.174 112.2C142.098 111.763 142.061 111.315 142.064 110.866C144.01 109.017 146.078 107.41 148.24 106.066C149.104 106.728 149.763 107.788 150.096 109.051L154.457 125.556L156.197 132.146C156.197 132.146 159.266 129.183 160.379 129.727C161.491 130.274 161.807 129.507 161.08 127.051C160.354 124.594 161.444 127.123 162.713 127.283C163.985 127.446 162.713 127.283 163.314 126.241C163.915 125.199 167.798 124.612 167.798 124.612L167.881 124.845L169.386 129.024L169.817 130.225C169.817 130.225 168.221 132.562 167.836 133.027C167.45 133.497 167.33 133.464 167.519 133.999C167.706 134.531 166.729 134.506 166.061 133.303Z" fill="#545AD8"/>
<defs>
<filter id="filter0_d_353_195" x="0" y="40" width="288" height="288" filterUnits="userSpaceOnUse" color-interpolation-filters="sRGB">
<feFlood flood-opacity="0" result="BackgroundImageFix"/>
<feColorMatrix in="SourceAlpha" type="matrix" values="0 0 0 0 0 0 0 0 0 0 0 0 0 0 0 0 0 0 127 0" result="hardAlpha"/>
<feOffset dy="4"/>
<feGaussianBlur stdDeviation="2"/>
<feComposite in2="hardAlpha" operator="out"/>
<feColorMatrix type="matrix" values="0 0 0 0 0 0 0 0 0 0 0 0 0 0 0 0 0 0 0.15 0"/>
<feBlend mode="normal" in2="BackgroundImageFix" result="effect1_dropShadow_353_195"/>
<feBlend mode="normal" in="SourceGraphic" in2="effect1_dropShadow_353_195" result="shape"/>
</filter>
<filter id="filter1_d_353_195" x="11" y="24" width="288" height="288" filterUnits="userSpaceOnUse" color-interpolation-filters="sRGB">
<feFlood flood-opacity="0" result="BackgroundImageFix"/>
<feColorMatrix in="SourceAlpha" type="matrix" values="0 0 0 0 0 0 0 0 0 0 0 0 0 0 0 0 0 0 127 0" result="hardAlpha"/>
<feOffset dy="4"/>
<feGaussianBlur stdDeviation="2"/>
<feComposite in2="hardAlpha" operator="out"/>
<feColorMatrix type="matrix" values="0 0 0 0 0 0 0 0 0 0 0 0 0 0 0 0 0 0 0.15 0"/>
<feBlend mode="normal" in2="BackgroundImageFix" result="effect1_dropShadow_353_195"/>
<feBlend mode="normal" in="SourceGraphic" in2="effect1_dropShadow_353_195" result="shape"/>
</filter>
</defs>
</svg>
