<svg width="19" height="19" viewBox="0 0 19 19" fill="none" xmlns="http://www.w3.org/2000/svg">
<path d="M9.4504 0.788646C7.52373 0.785524 5.65149 1.42763 4.13227 2.61257L2.98574 3.50683H4.43978H5.79886C5.83714 3.50683 5.87385 3.52203 5.90091 3.5491C5.92798 3.57616 5.94318 3.61287 5.94318 3.65114C5.94318 3.68942 5.92798 3.72613 5.90091 3.75319C5.87385 3.78026 5.83714 3.79546 5.79886 3.79546H2.79205C2.75377 3.79546 2.71706 3.78026 2.69 3.75319C2.66293 3.72613 2.64773 3.68942 2.64773 3.65114V0.644328C2.64773 0.606053 2.66293 0.569345 2.69 0.54228C2.71706 0.515215 2.75377 0.50001 2.79205 0.50001C2.83032 0.50001 2.86703 0.515215 2.89409 0.54228C2.92116 0.569345 2.93636 0.606053 2.93636 0.644328V2.15976V3.22222L3.75505 2.54504C5.35662 1.22029 7.3708 0.496914 9.44925 0.50001H9.45C14.3928 0.50001 18.4 4.50717 18.4 9.45001C18.4 14.3928 14.3928 18.4 9.45 18.4C4.50716 18.4 0.5 14.3928 0.5 9.45001C0.5 9.00624 0.532314 8.78266 0.592796 8.37019L0.59371 8.3647L0.593732 8.36471L0.594462 8.36006C0.600361 8.32249 0.620849 8.28877 0.651474 8.26623C0.682099 8.24368 0.720385 8.23413 0.758008 8.23966C0.795632 8.24519 0.829555 8.26534 0.852402 8.29574C0.875249 8.32614 0.885174 8.36433 0.880019 8.40201L0.87653 8.42751C0.818481 8.82549 0.788636 9.03329 0.788636 9.45001C0.788636 11.1631 1.29662 12.8376 2.24834 14.262C3.20006 15.6864 4.55278 16.7965 6.13544 17.4521C7.7181 18.1076 9.45961 18.2791 11.1397 17.9449C12.8199 17.6107 14.3632 16.7858 15.5745 15.5745C16.7858 14.3632 17.6107 12.8199 17.9449 11.1398C18.2791 9.45961 18.1076 7.7181 17.4521 6.13545C16.7965 4.55279 15.6863 3.20007 14.262 2.24835C12.8378 1.2967 11.1633 0.788726 9.4504 0.788646ZM9.4504 0.788646C9.45055 0.788646 9.45069 0.788647 9.45084 0.788647L9.45 1.28865V0.788646C9.45014 0.788646 9.45026 0.788646 9.4504 0.788646ZM9.37955 9.02046V9.52046H9.87955H11.8125C11.8508 9.52046 11.8875 9.53567 11.9145 9.56273C11.9416 9.5898 11.9568 9.6265 11.9568 9.66478C11.9568 9.70305 11.9416 9.73976 11.9145 9.76683C11.8875 9.79389 11.8508 9.8091 11.8125 9.8091H9.23523C9.15571 9.8091 9.09091 9.7443 9.09091 9.66478V4.08069C9.09091 4.04242 9.10611 4.00571 9.13318 3.97864C9.16024 3.95158 9.19695 3.93637 9.23523 3.93637C9.2735 3.93637 9.31021 3.95158 9.33727 3.97864C9.36434 4.00571 9.37955 4.04242 9.37955 4.08069V9.02046Z" fill="black" fill-opacity="0.2" stroke="#042E60"/>
</svg>
