<svg width="19" height="19" viewBox="0 0 19 19" fill="none" xmlns="http://www.w3.org/2000/svg">
<path d="M9.45 1.28865C7.63488 1.28561 5.87103 1.8905 4.43978 3.00683H5.79886C5.96975 3.00683 6.13363 3.07471 6.25446 3.19554C6.3753 3.31638 6.44318 3.48026 6.44318 3.65114C6.44318 3.82203 6.3753 3.98591 6.25446 4.10675C6.13363 4.22758 5.96975 4.29546 5.79886 4.29546H2.79205C2.62116 4.29546 2.45728 4.22758 2.33644 4.10675C2.21561 3.98591 2.14773 3.82203 2.14773 3.65114V0.644328C2.14773 0.473445 2.21561 0.30956 2.33644 0.188727C2.45728 0.0678937 2.62116 1.04487e-05 2.79205 1.04487e-05C2.96293 1.04487e-05 3.12681 0.0678937 3.24765 0.188727C3.36848 0.30956 3.43636 0.473445 3.43636 0.644328V2.15976C5.12777 0.760701 7.25495 -0.00325872 9.45 1.04487e-05C14.669 1.04487e-05 18.9 4.23103 18.9 9.45001C18.9 14.669 14.669 18.9 9.45 18.9C4.23102 18.9 0 14.669 0 9.45001C0 8.9672 0.0369409 8.71462 0.0987955 8.29281L0.100514 8.2825C0.126849 8.11478 0.218321 7.96422 0.355047 7.86357C0.491773 7.76292 0.662701 7.72029 0.830679 7.74497C0.998656 7.76965 1.15011 7.85962 1.25211 7.99535C1.35411 8.13107 1.39842 8.30157 1.3754 8.46978V8.4715C1.31527 8.88387 1.28864 9.0617 1.28864 9.45001C1.28864 11.0642 1.76729 12.6421 2.66407 13.9842C3.56086 15.3263 4.83549 16.3724 6.32678 16.9901C7.81808 17.6078 9.45905 17.7695 11.0422 17.4545C12.6254 17.1396 14.0796 16.3623 15.221 15.221C16.3623 14.0796 17.1396 12.6254 17.4545 11.0422C17.7695 9.45906 17.6078 7.81808 16.9901 6.32679C16.3724 4.8355 15.3263 3.56086 13.9842 2.66408C12.6421 1.7673 11.0642 1.28865 9.45 1.28865ZM9.87955 4.08069C9.87955 3.90981 9.81166 3.74592 9.69083 3.62509C9.56999 3.50426 9.40611 3.43637 9.23523 3.43637C9.06434 3.43637 8.90046 3.50426 8.77962 3.62509C8.65879 3.74592 8.59091 3.90981 8.59091 4.08069V9.66478C8.59091 10.0204 8.87956 10.3091 9.23523 10.3091H11.8125C11.9834 10.3091 12.1473 10.2412 12.2681 10.1204C12.3889 9.99955 12.4568 9.83566 12.4568 9.66478C12.4568 9.49389 12.3889 9.33001 12.2681 9.20918C12.1473 9.08834 11.9834 9.02046 11.8125 9.02046H9.87955V4.08069Z" fill="black" fill-opacity="0.2"/>
</svg>
