<svg width="19" height="19" viewBox="0 0 19 19" fill="none" xmlns="http://www.w3.org/2000/svg">
<path d="M18.6844 15.1495C18.0728 14.6497 17.5373 14.0767 17.0924 13.4459C16.6068 12.5752 16.3157 11.6244 16.2362 10.6491V7.77681C16.2404 6.24506 15.6344 4.76463 14.5319 3.61366C13.4294 2.46269 11.9065 1.72041 10.2491 1.52629V0.776228C10.2491 0.570359 10.1599 0.372923 10.0011 0.227352C9.84235 0.081781 9.62699 0 9.40243 0C9.17788 0 8.96252 0.081781 8.80373 0.227352C8.64494 0.372923 8.55574 0.570359 8.55574 0.776228V1.53792C6.91325 1.74603 5.40868 2.4928 4.3207 3.6399C3.23272 4.787 2.63505 6.25671 2.63839 7.77681V10.6491C2.55896 11.6244 2.26786 12.5752 1.78218 13.4459C1.34512 14.0752 0.818278 14.6482 0.215638 15.1495C0.147985 15.204 0.0937652 15.2711 0.0565842 15.3463C0.0194033 15.4215 0.000114032 15.503 0 15.5856V16.3764C0 16.5306 0.0668202 16.6785 0.185761 16.7875C0.304702 16.8966 0.466021 16.9578 0.634228 16.9578H18.2658C18.434 16.9578 18.5953 16.8966 18.7142 16.7875C18.8332 16.6785 18.9 16.5306 18.9 16.3764V15.5856C18.8999 15.503 18.8806 15.4215 18.8434 15.3463C18.8062 15.2711 18.752 15.204 18.6844 15.1495ZM1.31919 15.7949C1.90929 15.2723 2.42884 14.6867 2.86671 14.0506C3.4785 12.999 3.83545 11.8388 3.91319 10.6491V7.77681C3.88803 7.09538 4.01271 6.41628 4.2798 5.77994C4.54689 5.1436 4.95092 4.56305 5.46784 4.07284C5.98476 3.58264 6.60399 3.19281 7.28866 2.92657C7.97334 2.66033 8.70945 2.52312 9.45317 2.52312C10.1969 2.52312 10.933 2.66033 11.6177 2.92657C12.3024 3.19281 12.9216 3.58264 13.4385 4.07284C13.9554 4.56305 14.3595 5.1436 14.6265 5.77994C14.8936 6.41628 15.0183 7.09538 14.9932 7.77681V10.6491C15.0709 11.8388 15.4278 12.999 16.0396 14.0506C16.4775 14.6867 16.9971 15.2723 17.5871 15.7949H1.31919Z" fill="#042E60"/>
<path d="M9.48171 18.8998C9.88124 18.8914 10.2646 18.7537 10.5641 18.5111C10.8635 18.2685 11.0598 17.9366 11.118 17.5742H7.78198C7.8419 17.9465 8.04729 18.2861 8.35996 18.53C8.67262 18.7739 9.07126 18.9053 9.48171 18.8998V18.8998Z" fill="#042E60"/>
</svg>
