<svg width="19" height="19" viewBox="0 0 20 19" fill="none" xmlns="http://www.w3.org/2000/svg">
<rect width="18.9024" height="18.9024" transform="translate(0.670654)" fill="white"/>
<path d="M10.2164 10.0656C10.1613 10.0577 10.0904 10.0577 10.0274 10.0656C8.64122 10.0183 7.53857 8.88419 7.53857 7.49013C7.53857 6.06457 8.68847 4.9068 10.1219 4.9068C11.5475 4.9068 12.7052 6.06457 12.7052 7.49013C12.6974 8.88419 11.6026 10.0183 10.2164 10.0656Z" stroke="#042E60" stroke-width="1.41768" stroke-linecap="round" stroke-linejoin="round"/>
<path d="M15.4303 15.2637C14.0284 16.5475 12.1697 17.3272 10.1219 17.3272C8.07415 17.3272 6.21541 16.5475 4.81348 15.2637C4.89224 14.5234 5.3648 13.7988 6.20753 13.2317C8.36556 11.7983 11.894 11.7983 14.0363 13.2317C14.879 13.7988 15.3516 14.5234 15.4303 15.2637Z" stroke="#042E60" stroke-width="1.41768" stroke-linecap="round" stroke-linejoin="round"/>
<path d="M10.1219 17.3272C14.4717 17.3272 17.9979 13.801 17.9979 9.45121C17.9979 5.10141 14.4717 1.5752 10.1219 1.5752C5.77206 1.5752 2.24585 5.10141 2.24585 9.45121C2.24585 13.801 5.77206 17.3272 10.1219 17.3272Z" stroke="#042E60" stroke-width="1.41768" stroke-linecap="round" stroke-linejoin="round"/>
</svg>
